<svg xmlns="http://www.w3.org/2000/svg" xmlns:xlink="http://www.w3.org/1999/xlink" xml:space="preserve" width="248px" height="300px" fill-rule="evenodd" clip-rule="evenodd" viewBox="0 0 248 300">
 <g id="Capa_x0020_1">
  <metadata id="CorelCorpID_0Corel-Layer"></metadata>
  <path fill="white" d="M73 279c-3,-4 -6,-3 -11,-9 -1,-1 -1,-1 -2,-2 -10,0 -28,1 -36,-2 -9,-3 -14,-13 -14,-23 -1,-63 0,-127 0,-190 0,-14 -2,-23 5,-33 8,-11 17,-10 28,-10l114 0c13,0 22,0 29,9 6,8 4,21 4,33 0,25 0,51 0,76 5,2 7,7 9,12 1,-7 1,-72 1,-85 0,-15 1,-27 -5,-38 -5,-10 -13,-16 -27,-17 -14,0 -29,0 -43,0 -15,0 -29,0 -44,0 -14,0 -28,0 -43,0 -13,0 -25,4 -31,13 -8,12 -7,20 -7,36l0 129c0,14 0,28 0,43 0,21 -3,39 14,51 4,2 9,5 15,6 9,2 33,1 44,1zm35 -93c1,-3 3,-3 0,-5 -3,1 -1,-1 -2,3 1,2 0,1 2,2 2,4 4,6 9,7 -1,5 -15,35 -15,36 0,2 -1,1 1,2 3,-7 11,-27 14,-32 0,6 -1,30 1,33l-21 0c3,20 39,19 42,0l-20 0 0 -33 10 24c1,3 2,7 5,8l-15 -37c8,-4 2,0 14,-7 8,-5 9,-1 17,0l1 -4c1,20 0,35 1,51 -6,5 -3,4 -4,17 -3,0 -4,0 -7,1 0,2 0,2 1,4 -17,0 -20,-3 -20,7l64 0c0,-10 -3,-7 -20,-7 1,-2 1,-2 0,-4l-7 -1c-1,-8 2,-14 -3,-17 0,-15 1,-38 0,-52 -1,-9 1,-5 2,-10 0,-6 -7,-6 -8,-2 -1,5 2,2 2,9 -9,1 -17,2 -23,6 -7,5 -15,8 -21,1zm92 0c3,-2 3,-1 3,-4 -3,-1 -2,-1 -5,0 0,3 0,1 1,2l1 1c0,0 0,0 0,1zm-64 -41c7,0 23,1 28,-1 3,-7 -1,-8 -8,-8 -7,0 -13,0 -20,0 1,3 1,5 0,9zm-77 92c-2,-3 -3,-5 -4,-9 -6,0 -12,0 -17,0 -5,0 -14,-1 -11,6 1,5 10,3 14,3 6,0 12,0 18,0zm4 -31c0,-2 -1,-3 -1,-4 -3,-7 -2,-6 -13,-6 -4,0 -18,-1 -21,2 -2,2 -2,6 1,7 2,1 30,1 34,1zm15 -30l-2 -9 -44 0c-5,0 -7,5 -4,8 2,2 24,1 28,1 7,0 3,-4 11,-3 6,0 7,2 11,3zm3 -31c1,-2 1,-3 4,-4 2,0 4,1 6,2 6,2 7,2 14,2 1,-3 2,-6 4,-9 -5,-1 -62,0 -73,0 -2,0 -6,-1 -7,1 -2,1 -3,4 -2,6 2,3 13,2 17,2 12,0 25,0 37,0zm77 42c7,-1 10,-4 17,0 4,3 8,6 15,6 -2,9 -15,33 -15,40l-6 -1c3,21 41,17 43,2l-36 -1c2,-6 12,-31 14,-34l0 25c0,1 0,3 0,4l1 4c2,-5 1,-26 1,-33 3,5 10,29 13,32 0,-1 0,0 0,-2 0,-1 -12,-30 -13,-35 4,-3 7,-2 8,-8l-1 1c-8,7 -12,3 -19,-1 -7,-4 -13,-6 -22,-7l0 8zm7 -80c-6,-2 -107,-1 -129,-1 -3,0 -6,0 -8,1 -2,2 -1,6 0,7 3,3 65,1 73,1l56 0c7,1 9,-1 8,-8zm-1 -24c4,-11 -7,-8 -25,-8l-75 0c-6,0 -33,-2 -36,1 -1,1 -5,8 7,8 23,0 123,1 129,-1zm0 -37c-6,-2 -91,-1 -110,-1 -4,0 -23,-1 -26,2 -2,1 -2,5 0,6 3,3 29,2 35,2l94 0c7,0 10,-2 7,-9zm-68 246c2,-7 17,-6 21,-2 -4,6 -16,5 -21,2zm-4 -21c-6,0 -14,-2 -18,-6 -2,-1 -1,0 -2,-2 9,-3 18,1 20,8zm-22 -37c-2,-3 -4,-6 -4,-11 8,2 11,7 12,17 -2,-2 -7,-5 -8,-6zm0 -47c1,-1 0,-1 1,-1l4 3c5,4 4,13 1,15 -4,-2 -8,-12 -6,-17zm20 -11c-4,-5 -4,-16 -1,-21 3,3 4,2 5,10 0,3 -1,7 -2,9l-2 2zm24 -22c1,-6 2,-10 6,-15 1,-1 2,-2 3,-3 5,8 -2,17 -9,18zm-13 11c-3,-8 -4,-16 -13,-18 -17,17 3,43 -6,41 -2,-1 -7,-13 -17,-10 -1,0 0,-1 -1,1 -2,7 0,17 3,23 3,5 6,6 9,10l-1 8c-7,-2 -7,-5 -17,-3 0,12 7,24 17,30 5,3 7,2 8,9 -8,0 -16,1 -19,6 2,6 9,11 15,13 11,4 16,-1 24,5l-1 1c-1,1 1,-1 -1,1l-8 3c-4,2 -6,5 -7,10 10,2 14,7 27,5 4,-1 7,-4 11,-5 5,-2 9,1 15,1 0,-6 0,-5 -11,-9 -4,-2 -7,-3 -11,-5 -22,-11 -35,-35 -35,-61 0,-26 15,-48 33,-59 4,-2 8,-5 11,-8 7,-8 8,-19 0,-27 -18,5 -17,30 -20,34l-5 4zm111 127c-8,4 -16,3 -21,-1 4,-6 17,-4 21,1zm2 -21c3,-6 10,-11 20,-7 -3,5 -11,8 -20,7zm14 -31c2,-9 4,-15 14,-17 -2,9 -7,14 -14,17zm0 -41c0,-7 3,-13 9,-15 0,8 -1,11 -4,18 0,0 -1,1 -1,2 -1,2 -1,1 -1,1 -3,-1 -3,-2 -3,-6zm-11 -23c-6,-5 -5,-16 0,-21 4,4 3,16 0,21zm-34 -28c-1,-3 -3,-9 -2,-12 5,3 11,10 11,18 -4,-1 -7,-3 -9,-6zm-8 -8c0,21 18,19 31,34 10,13 18,27 18,49 0,25 -16,50 -35,60 -6,3 -17,6 -23,8l1 5c8,1 9,-4 18,0 6,2 7,4 16,4 7,0 15,-2 20,-5 -1,-5 -4,-7 -7,-10 -3,-3 -6,-3 -11,-4 8,-8 14,-1 24,-6 7,-2 15,-7 16,-14 -8,-6 -8,-5 -20,-5 1,-7 4,-7 12,-12 2,-1 2,-2 4,-4 6,-7 8,-10 9,-23 -11,0 -9,0 -17,4 0,-10 -1,-8 2,-10 3,-3 4,-4 6,-8 5,-9 4,-15 3,-25l-1 0c-9,-1 -14,7 -16,9 -2,2 0,1 -3,1 -3,-6 2,-14 3,-21 2,-12 -2,-14 -5,-22 -4,2 -7,5 -9,8 -4,4 -3,7 -5,12 -10,-4 -7,-11 -11,-22 -3,-7 -8,-15 -16,-16 -3,3 -4,7 -4,13z"></path>
 </g>
</svg>