<svg xmlns="http://www.w3.org/2000/svg" xmlns:xlink="http://www.w3.org/1999/xlink" xml:space="preserve" width="450px" height="231px" fill-rule="evenodd" clip-rule="evenodd" viewBox="0 0 450 231">
 <g id="Capa_x0020_1">
  <metadata id="CorelCorpID_0Corel-Layer"></metadata>
  <g id="_1290902188976">
   <g>
    <path fill="white" fill-rule="nonzero" d="M17 183c3,0 6,0 7,-1 1,0 1,0 1,-1 1,-1 1,-5 1,-5 0,0 0,-1 0,-1 0,0 -1,1 -1,1 0,1 0,2 -1,3 -2,2 -4,2 -7,2 -8,0 -14,-7 -14,-14 0,-4 1,-7 4,-10 1,-1 4,-3 9,-3 3,0 6,1 7,3 1,0 2,2 2,3 0,1 0,1 0,1 1,0 1,0 1,-1 0,0 0,-2 0,-3 0,-2 0,-2 0,-3 0,0 0,0 -1,0 -1,0 -2,0 -3,-1 -2,0 -4,0 -6,0 -6,0 -9,2 -12,4 -3,3 -4,8 -4,10 0,4 1,8 5,12 3,3 7,4 12,4zm15 -10c0,3 0,6 -1,7 0,1 0,2 -1,2 0,0 0,0 -1,0 0,0 0,0 0,0 0,0 0,0 1,0 0,0 1,0 2,0 0,0 1,0 1,0 1,0 1,0 3,0 1,0 3,1 6,1 1,0 1,0 2,-1 0,-1 0,-3 0,-3 0,-1 0,-1 0,-1 0,0 0,0 0,1 -1,1 -1,1 -2,2 -1,0 -3,0 -3,0 -4,0 -4,0 -4,-2 0,-1 0,-5 0,-6l0 -3c0,0 0,0 0,0 0,0 4,0 5,0 1,0 2,1 2,1 0,1 0,1 0,1 0,0 0,1 0,1 0,0 0,-1 0,-1 0,0 0,-2 0,-2 1,-1 1,-2 1,-2 0,0 0,0 0,0 -1,0 -1,0 -1,0 0,1 -1,1 -2,1 0,0 -5,0 -5,0 0,0 0,0 0,-1l0 -8c0,-1 0,-1 0,-1 0,0 4,0 5,0 1,1 2,1 2,1 0,1 0,1 0,1 0,1 0,1 1,1 0,0 0,0 0,0 0,-1 0,-2 0,-3 0,-1 0,-1 0,-1 0,0 0,0 0,0 0,0 0,0 0,0 -1,0 -1,0 -2,0 -1,0 -8,0 -8,0 0,0 -2,0 -4,0 0,0 0,0 0,0 0,0 0,0 0,0 0,0 1,0 1,0 1,1 1,1 1,2 1,1 1,2 1,7l0 6zm19 -10c1,1 5,5 9,9 3,4 8,8 8,9 2,1 3,2 3,2 0,0 0,-1 0,-3l0 -19c0,-2 0,-2 1,-3 1,0 1,0 1,0 1,0 1,0 1,0 0,0 -1,0 -1,0 -1,0 -2,0 -3,0 0,0 -2,0 -3,0 -1,0 -1,0 -1,0 0,0 0,0 0,0 1,0 1,0 2,0 1,1 1,1 1,4l1 16c-2,-1 -5,-5 -8,-9 -6,-5 -11,-10 -11,-11 0,0 -1,-1 -1,-1 -1,0 -1,1 -1,2l0 19c0,3 0,3 -1,4 0,0 -1,0 -1,0 0,0 0,0 0,0 0,0 0,0 0,0 2,0 3,0 3,0 1,0 2,0 4,0 0,0 1,0 1,0 0,0 -1,0 -1,0 0,0 -1,0 -1,0 -1,-1 -2,-1 -2,-4l0 -15zm35 -4l5 0c3,0 3,1 4,2l0 1c0,0 0,0 0,0 0,0 0,0 0,0 0,-1 0,-3 0,-4 0,0 0,0 0,0 0,0 0,0 -1,0 0,0 -1,0 -2,0l-13 0c0,0 -2,0 -3,0 0,0 -1,-1 -1,-1 0,0 0,1 0,1 0,0 -1,3 -1,3 0,1 0,1 0,1 0,0 0,0 0,-1 1,0 1,0 1,-1 0,0 1,-1 3,-1l5 0 0 14c0,3 0,6 0,7 0,1 0,2 -1,2 0,0 -1,0 -1,0 0,0 0,0 0,0 0,0 0,0 0,0 1,0 4,0 4,0 0,0 2,0 4,0 0,0 1,0 1,0 0,0 0,0 -1,0 0,0 -1,0 -1,0 -1,0 -1,-1 -2,-2 0,-1 0,-4 0,-7l0 -14zm14 14c0,3 0,6 -1,7 0,1 0,2 -1,2 0,0 0,0 -1,0 0,0 0,0 0,0 0,0 0,0 1,0 1,0 3,0 3,0 0,0 2,0 4,0 1,0 1,0 1,0 0,0 0,0 -1,0 0,0 -1,0 -1,0 -1,0 -1,-1 -1,-2 -1,-1 -1,-4 -1,-7l0 -1c0,0 1,0 1,0l4 0c0,0 0,0 0,0 1,1 3,3 4,5 2,2 3,4 5,5 0,0 1,0 3,0l2 0c1,0 1,0 1,0 0,0 0,0 0,0 0,0 -1,0 -1,0 -1,0 -2,-1 -4,-2 -2,-3 -4,-5 -7,-9 3,-3 4,-5 4,-7 0,-3 -1,-4 -2,-5 -2,-1 -4,-1 -7,-1 -1,0 -3,0 -4,0 0,0 -2,0 -4,0 0,0 0,0 0,0 0,0 0,0 0,0 0,0 1,0 1,0 1,1 1,1 1,2 1,1 1,2 1,7l0 6zm2 -13c0,-1 1,-1 1,-1 0,0 1,0 2,0 4,0 6,2 6,6 0,3 -1,5 -2,5 -1,1 -2,1 -3,1 -1,0 -3,0 -3,-1 0,0 -1,0 -1,0l0 -10zm17 10c0,6 4,13 13,13 8,0 14,-6 14,-13 0,-8 -6,-13 -13,-13 -10,0 -14,8 -14,13zm4 -1c0,-7 4,-10 9,-10 6,0 10,4 10,11 0,10 -6,12 -9,12 -6,0 -10,-5 -10,-13zm69 4c0,3 0,6 0,7 -1,1 -1,2 -1,2 -1,0 -1,0 -1,0 0,0 -1,0 -1,0 0,0 1,0 1,0 1,0 1,0 2,0 1,0 1,0 1,0 1,0 2,0 3,0 2,0 4,1 6,1 1,0 2,0 2,-1 0,-1 0,-3 0,-3 0,-1 0,-1 0,-1 0,0 0,0 0,1 0,1 -1,1 -2,2 -1,0 -2,0 -3,0 -3,0 -4,0 -4,-2 0,-1 0,-5 0,-6l0 -3c0,0 0,0 0,0 1,0 4,0 5,0 1,0 2,1 2,1 0,1 0,1 0,1 0,0 0,1 0,1 1,0 1,-1 1,-1 0,0 0,-2 0,-2 0,-1 0,-2 0,-2 0,0 0,0 0,0 0,0 0,0 -1,0 0,1 -1,1 -1,1 -1,0 -6,0 -6,0 0,0 0,0 0,-1l0 -8c0,-1 0,-1 0,-1 0,0 4,0 5,0 2,1 2,1 2,1 0,1 1,1 1,1 0,1 0,1 0,1 0,0 0,0 0,0 0,-1 0,-2 0,-3 0,-1 1,-1 1,-1 0,0 0,0 -1,0 0,0 0,0 0,0 0,0 -1,0 -2,0 0,0 -7,0 -8,0 0,0 -2,0 -4,0 0,0 0,0 0,0 0,0 0,0 0,0 1,0 1,0 1,0 1,1 2,1 2,2 0,1 0,2 0,7l0 6zm28 5c0,2 -1,4 -3,4 0,0 -1,0 -1,0 0,0 0,0 0,0 0,0 0,0 0,0 2,0 4,0 5,0 0,0 2,0 3,0 0,0 0,0 0,0 0,0 0,0 0,0l-1 0c0,0 -1,0 -1,-1 0,-1 0,-2 1,-3l2 -7c0,0 0,0 0,0l8 0c1,0 1,0 1,0l3 10c1,0 0,1 0,1 0,0 0,0 0,0 0,0 0,0 1,0 3,0 5,0 6,0 0,0 1,0 1,0 0,0 0,0 -1,0 0,0 -1,0 -1,0 -1,-1 -2,-1 -3,-5 -3,-5 -9,-21 -9,-23 -1,-1 -1,-1 -1,-1 0,0 -1,0 -1,1l-9 24zm6 -8c0,0 -1,0 0,-1l3 -10c0,0 0,0 0,0l4 10c0,1 0,1 0,1l-7 0zm23 7c0,0 0,2 0,3 -1,1 -1,2 -1,2 -1,0 -1,0 -1,0 -1,0 -1,0 -1,0 0,0 0,0 1,0 1,0 3,0 3,0 0,0 3,0 4,0 1,0 1,0 1,0 0,0 0,0 0,0 -1,0 -1,0 -2,0 -1,0 -1,-1 -1,-2 0,-1 0,-3 0,-3l0 -3c0,-1 0,-2 0,-3 1,-2 6,-9 7,-11 0,-1 1,-1 1,-1 1,-1 2,-1 2,-1 0,0 0,0 0,0 0,0 0,0 0,0 -1,0 -3,0 -3,0 -1,0 -2,0 -3,0 0,0 0,0 0,0 0,0 0,0 0,0 1,0 1,1 1,1 0,1 0,1 -1,2 0,1 -5,8 -5,9l-6 -10c-1,0 -1,-1 -1,-1 0,0 0,-1 1,-1 0,0 0,0 0,0 0,0 0,0 0,0 -2,0 -3,0 -3,0 0,0 -3,0 -4,0 0,0 0,0 0,0 0,0 0,0 0,0 1,0 1,0 2,1 0,0 1,1 2,2 1,2 6,9 6,10 0,1 1,1 1,3l0 3zm13 -5c0,5 2,7 3,9 3,2 6,2 7,2 2,0 5,0 7,-3 3,-2 4,-6 4,-9l0 -4c0,-5 -1,-6 0,-7 0,-1 0,-1 1,-2 0,0 0,0 1,0 0,0 0,0 0,0 0,0 0,0 -1,0 -1,0 -2,0 -3,0 0,0 -2,0 -3,0 -1,0 -1,0 -1,0 0,0 0,0 1,0 0,0 0,0 1,0 1,1 1,1 1,2 0,1 0,2 0,7l0 4c0,4 0,6 -2,8 -1,2 -3,3 -5,3 -2,0 -3,-1 -5,-2 -1,-2 -2,-4 -2,-8l0 -5c0,-5 0,-6 0,-7 0,-1 0,-1 1,-2 0,0 0,0 1,0 0,0 0,0 0,0 0,0 0,0 -1,0 -1,0 -3,0 -3,0 0,0 -2,0 -4,0 0,0 -1,0 -1,0 0,0 1,0 1,0 0,0 1,0 1,0 1,1 1,1 1,2 0,1 0,2 0,7l0 5zm27 1c0,3 0,6 0,7 0,1 0,2 -1,2 0,0 0,0 -1,0 0,0 0,0 0,0 0,0 0,0 0,0 1,0 2,0 3,0 0,0 1,0 1,0 0,0 1,0 3,1 1,0 3,0 4,0 6,0 9,-3 11,-4 1,-2 3,-5 3,-9 0,-4 -1,-7 -3,-8 -4,-5 -10,-4 -14,-4 -2,0 -4,0 -4,0 0,0 -2,0 -4,0 0,0 -1,0 -1,0 0,0 1,0 1,0 0,0 1,0 1,0 1,1 1,1 1,2 0,1 0,2 0,7l0 6zm3 -13c0,-1 1,-1 1,-1 0,0 1,0 2,0 4,0 8,0 11,4 1,1 3,4 3,8 0,3 -1,6 -3,8 -2,1 -4,2 -8,2 -4,0 -5,0 -5,-1 0,0 -1,-1 -1,-2 0,-1 0,-4 0,-7l0 -11zm22 19c0,1 -1,3 -2,3 -1,0 -1,0 -1,0 -1,0 -1,0 -1,0 0,0 0,0 1,0 1,0 3,0 3,0 1,0 3,0 3,0 1,0 1,0 1,0 0,0 0,0 -1,0l0 0c0,0 -1,0 -1,-1 0,-1 0,-1 1,-2l1 -5c1,-1 1,-1 1,-1l8 0c0,0 0,0 0,1l3 7c0,1 0,1 0,1 -1,0 -1,0 -1,0 0,0 1,0 2,0 2,0 4,0 5,0 0,0 1,0 1,0 0,0 -1,0 -1,0 0,0 -1,0 -1,0 -1,-1 -2,-1 -3,-4 -2,-5 -7,-18 -8,-20 0,0 -1,-1 -1,-1 0,0 0,0 -1,1l-8 21zm5 -7c0,0 0,0 0,0l3 -9c0,-1 1,-1 1,0l3 9c0,0 0,0 0,0l-7 0zm36 -7c0,-6 0,-7 0,-9 0,-1 0,-2 1,-2 1,0 1,0 2,0 0,0 0,0 0,0 0,0 0,-1 -1,-1 -1,0 -4,1 -4,1 0,0 -2,-1 -4,-1 -1,0 -1,1 -1,1 0,0 0,0 1,0 0,0 1,0 1,0 1,0 1,1 2,2 0,2 0,3 0,9l0 6c0,4 0,7 -1,9 0,1 0,2 -1,2 0,0 0,0 -1,0 0,0 0,0 0,0 0,0 0,0 0,0 1,0 2,0 3,0 0,0 1,0 1,0 1,0 3,0 4,0 2,0 4,1 6,1 3,0 3,-1 3,-1 0,-2 0,-4 0,-4 0,-1 0,-1 0,-1 0,0 0,0 0,1 0,0 -1,1 -1,2 -1,1 -3,1 -5,1 -3,0 -4,0 -4,-1 -1,-1 -1,-3 -1,-9l0 -6zm16 8c0,3 0,6 -1,7 0,1 0,2 0,2 -1,0 -1,0 -1,0 -1,0 -1,0 -1,0 0,0 0,0 1,0 0,0 1,0 2,0 0,0 1,0 1,0 1,0 2,0 3,0 1,0 3,1 6,1 1,0 1,0 2,-1 0,-1 0,-3 0,-3 0,-1 0,-1 0,-1 0,0 0,0 0,1 -1,1 -1,1 -2,2 -1,0 -2,0 -3,0 -4,0 -4,0 -4,-2 0,-1 0,-5 0,-6l0 -3c0,0 0,0 0,0 0,0 4,0 5,0 1,0 2,1 2,1 0,1 0,1 0,1 0,0 0,1 0,1 0,0 0,-1 0,-1 0,0 1,-2 1,-2 0,-1 0,-2 0,-2 0,0 0,0 0,0 0,0 -1,0 -1,0 0,1 -1,1 -1,1 -1,0 -6,0 -6,0 0,0 0,0 0,-1l0 -8c0,-1 0,-1 0,-1 0,0 4,0 5,0 2,1 2,1 2,1 0,1 0,1 0,1 0,1 0,1 1,1 0,0 0,0 0,0 0,-1 0,-2 0,-3 0,-1 0,-1 0,-1 0,0 0,0 0,0 0,0 0,0 0,0 0,0 -1,0 -2,0 -1,0 -8,0 -8,0 0,0 -2,0 -4,0 0,0 0,0 0,0 0,0 0,0 0,0 0,0 1,0 1,0 1,1 1,1 2,2 0,1 0,2 0,7l0 6zm34 7c0,0 0,1 -1,1 -1,0 -2,0 -4,0 -3,0 -5,-1 -8,-3 -1,-1 -4,-4 -4,-9 0,-4 2,-7 4,-8 2,-2 5,-2 7,-2 4,0 7,1 7,2 1,1 1,2 1,2 0,1 0,1 0,1 1,0 1,0 1,-1 0,-3 0,-4 0,-4 0,-1 0,-1 0,-1 -1,0 -2,0 -3,0 -1,0 -3,-1 -5,-1 -3,0 -6,1 -9,2 -3,2 -6,6 -6,11 0,4 2,8 4,9 4,4 9,4 11,4 2,0 5,0 7,-2 1,0 1,0 1,-1l0 -4c0,-1 0,-2 0,-3 0,-2 0,-2 1,-2 1,0 1,0 1,0 0,0 0,0 0,-1 0,0 0,0 0,0 -1,0 -3,0 -4,0 0,0 -2,0 -4,0 0,0 0,0 0,0 0,1 0,1 0,1 0,0 1,0 1,0 2,0 2,0 2,3l0 6z"></path>
    <path fill="white" fill-rule="nonzero" d="M412 179c0,1 -1,3 -2,3 -1,0 -1,0 -1,0 -1,0 -1,0 -1,0 0,0 1,0 1,0 1,0 3,0 3,0 1,0 3,0 3,0 1,0 1,0 1,0 0,0 0,0 0,0l-1 0c0,0 -1,0 -1,-1 0,-1 0,-1 1,-2l1 -5c1,-1 1,-1 1,-1l8 0c0,0 0,0 0,1l3 7c0,1 0,1 0,1 -1,0 -1,0 -1,0 0,0 1,0 2,0 2,0 4,0 5,0 0,0 1,0 1,0 0,0 -1,0 -1,0 0,0 -1,0 -1,0 -1,-1 -2,-1 -3,-4 -2,-5 -7,-18 -8,-20 0,0 -1,-1 -1,-1 0,0 0,0 -1,1l-8 21zm5 -7c0,0 0,0 0,0l3 -9c1,-1 1,-1 1,0l3 9c0,0 0,0 0,0l-7 0zm22 -5c0,-5 0,-6 0,-7 1,-1 1,-1 2,-2 0,0 1,0 1,0 0,0 0,0 0,0 0,0 0,0 0,0 -1,0 -4,0 -4,0 0,0 -2,0 -4,0 0,0 -1,0 -1,0 0,0 1,0 1,0 0,0 1,0 1,0 1,1 1,1 1,2 0,1 0,2 0,7l0 6c0,3 0,6 0,7 0,1 0,2 -1,2 0,0 0,0 -1,0 0,0 0,0 0,0 0,0 0,0 0,0 1,0 2,0 2,0 1,0 2,0 2,0 1,0 2,0 3,0 2,0 4,1 6,1 2,0 2,-1 3,-1 0,-1 0,-3 0,-4 0,0 0,0 0,0 0,0 -1,0 -1,0 0,1 0,2 0,2 -1,1 -3,1 -4,1 -3,0 -4,0 -5,-1 -1,0 -1,-2 -1,-7l0 -6zm-275 6c0,3 0,6 -1,7 0,1 0,2 0,2 -1,0 -1,0 -1,0 -1,0 -1,0 -1,0 0,0 0,0 1,0 0,0 1,0 2,0 0,0 1,0 1,0 0,0 1,0 3,1 1,0 3,0 5,0 5,0 8,-3 10,-4 2,-2 4,-5 4,-9 0,-4 -2,-7 -4,-8 -4,-5 -10,-4 -13,-4 -2,0 -4,0 -5,0 0,0 -2,0 -4,0 0,0 0,0 0,0 0,0 0,0 0,0 0,0 1,0 1,0 1,1 1,1 2,2 0,1 0,2 0,7l0 6zm3 -13c0,-1 0,-1 0,-1 0,0 1,0 2,0 4,0 8,0 11,4 1,1 3,4 3,8 0,3 -1,6 -2,8 -2,1 -5,2 -8,2 -4,0 -5,0 -6,-1 0,0 0,-1 0,-2 0,-1 0,-4 0,-7l0 -11z"></path>
   </g>
   <line fill="none" x1="57" y1="135" x2="393" y2="135"></line>
   <polygon fill="white" fill-rule="nonzero" points="57,134 393,134 393,136 57,136 "></polygon>
   <g>
    <path fill="white" d="M179 34c0,1 4,9 5,11l2 5c0,0 0,1 1,1 0,1 0,2 1,3l5 12c1,3 3,6 4,9l2 5c0,0 0,1 0,2 -10,11 -30,11 -40,0 0,-1 0,-2 0,-2 2,-4 4,-9 6,-13 2,-5 4,-11 6,-15l8 -18 0 0zm92 0c-5,14 -12,27 -18,41l-2 5c0,0 0,1 0,2 10,11 30,11 40,0 0,-1 0,-2 0,-2 -6,-15 -13,-31 -20,-46zm-93 -3c-7,16 -17,33 -25,49 0,1 -1,1 -1,2 1,0 1,0 1,1 7,9 16,13 27,13 10,0 20,-5 26,-14 -4,-6 -21,-40 -25,-49 11,5 23,8 34,10l0 38 -3 0 0 11 -3 0 0 14 -12 0 0 8c12,0 46,0 58,0l0 -8 -14 0 0 -14 -3 0 0 -11 -3 0 0 -39c11,-1 23,-4 34,-9 -4,9 -21,42 -25,49 6,9 16,14 26,14 11,0 20,-4 27,-13 0,-1 0,-1 1,-1 0,-1 -1,-1 -1,-2 -9,-16 -17,-33 -26,-49 -10,4 -24,6 -38,6l0 -5 -3 0 0 -6 -1 0 0 -3 -2 0 0 -3 -1 0 0 -7 0 -1 -1 0 0 -12 0 0 0 12 0 0 -1 1 0 7 0 0 0 3 -2 0 0 3 -2 0 0 6 -2 0 0 5c-15,0 -29,-2 -40,-6l0 0z"></path>
    <polygon fill="white" points="219,45 221,45 221,33 222,33 222,28 224,28 224,24 227,24 227,28 229,28 229,33 230,33 230,45 232,45 232,83 235,83 235,94 237,94 237,109 251,109 251,111 200,111 200,109 214,109 214,94 216,94 216,83 219,83 219,45 "></polygon>
    <path fill="white" d="M271 39c-4,12 -10,23 -15,35l-1 4c0,0 -1,1 -1,1 9,9 25,10 34,0 0,0 -1,-1 -1,-1 -5,-13 -11,-26 -16,-39zm0 12c-1,3 -3,7 -4,10 -2,4 -4,8 -6,12l0 1 -1 2 0 0c0,0 0,0 0,0 0,0 0,1 0,1 0,0 0,0 1,0 2,3 6,4 10,4 4,0 8,-1 10,-4 1,0 1,0 1,0 0,-1 0,-1 0,-1 -3,-6 -5,-12 -8,-18 -1,-2 -2,-5 -3,-7l0 0z"></path>
    <path fill="white" d="M179 39c-4,12 -10,23 -14,35l-2 4c0,0 0,1 0,1 8,9 24,10 33,0 0,0 0,-1 0,-1 -5,-13 -11,-26 -17,-39zm0 12c-1,3 -3,7 -4,10 -2,4 -4,8 -5,12l0 1 -1 2 0 0c0,0 -1,0 -1,0 0,0 0,1 0,1 1,0 1,0 1,0 3,3 6,4 10,4 4,0 8,-1 11,-4 0,0 0,0 0,0 0,-1 0,-1 0,-1 -2,-6 -5,-12 -7,-18 -2,-2 -3,-5 -4,-7l0 0z"></path>
   </g>
   <path fill="white" fill-rule="nonzero" d="M82 225l-5 -19 3 0 3 13c0,1 0,2 1,4 0,-3 0,-4 1,-4l3 -13 3 0 3 10c1,2 1,4 2,7 0,-2 0,-3 1,-5l3 -12 2 0 -5 19 -3 0 -4 -15c0,-1 0,-2 0,-2 0,1 -1,2 -1,2l-4 15 -3 0zm23 -17l0 -2 2 0 0 2 -2 0zm0 17l0 -14 2 0 0 14 -2 0zm6 0l0 -19 2 0 0 19 -2 0zm6 0l0 -19 2 0 0 19 -2 0zm6 -17l0 -2 2 0 0 2 -2 0zm0 17l0 -14 2 0 0 14 -2 0zm15 -1c-1,0 -2,1 -2,1 -1,0 -2,1 -3,1 -2,0 -3,-1 -4,-2 -1,0 -1,-1 -1,-2 0,-1 0,-2 1,-2 0,-1 0,-1 1,-2 0,0 1,0 2,-1 0,0 1,0 2,0 2,0 3,0 4,-1 0,0 0,0 0,0 0,-1 0,-2 -1,-2 0,-1 -1,-1 -2,-1 -2,0 -2,0 -3,0 0,1 -1,1 -1,2l-3 0c1,-1 1,-2 2,-2 0,-1 1,-1 2,-2 1,0 2,0 3,0 1,0 2,0 3,0 1,0 1,1 2,1 0,1 0,1 0,2 0,0 0,1 0,2l0 3c0,3 1,4 1,5 0,0 0,1 0,1l-2 0c-1,0 -1,-1 -1,-1zm0 -6c-1,1 -2,1 -4,1 -1,0 -2,0 -2,1 0,0 -1,0 -1,0 0,1 0,1 0,1 0,1 0,2 0,2 1,1 2,1 3,1 0,0 1,0 2,-1 1,0 1,-1 2,-2 0,0 0,-1 0,-2l0 -1zm6 7l0 -14 2 0 0 2c1,-1 1,-1 2,-2 1,0 2,0 3,0 1,0 2,0 2,0 1,1 1,1 2,2 1,-1 2,-2 4,-2 1,0 3,0 3,1 1,1 1,2 1,4l0 9 -2 0 0 -9c0,-1 0,-1 0,-2 0,0 -1,0 -1,-1 0,0 -1,0 -1,0 -1,0 -2,0 -3,1 -1,1 -1,2 -1,3l0 8 -2 0 0 -9c0,-1 -1,-2 -1,-2 0,-1 -1,-1 -2,-1 -1,0 -1,0 -2,0 0,1 -1,1 -1,2 0,1 0,2 0,3l0 7 -3 0zm31 0l0 -19 7 0c2,0 3,0 3,0 1,0 2,0 3,1 0,0 1,1 1,2 1,0 1,1 1,2 0,2 -1,3 -2,5 -1,1 -3,1 -5,1l-5 0 0 8 -3 0zm3 -10l5 0c1,0 3,0 3,-1 1,-1 1,-1 1,-3 0,0 0,-1 0,-2 -1,0 -1,-1 -2,-1 0,0 -1,0 -2,0l-5 0 0 7zm12 10l0 -2 3 0 0 2 -3 0zm15 0l0 -19 7 0c2,0 3,0 4,0 1,1 1,1 2,2 0,1 1,2 1,3 0,1 0,1 -1,2 0,1 -1,1 -2,2 1,0 2,1 3,2 0,0 1,1 1,3 0,1 0,1 -1,2 0,1 -1,2 -1,2 -1,0 -2,1 -2,1 -1,0 -2,0 -4,0l-7 0zm2 -11l5 0c1,0 2,0 2,0 1,0 1,-1 2,-1 0,-1 0,-1 0,-2 0,-1 0,-1 0,-2 -1,0 -1,-1 -2,-1 0,0 -1,0 -3,0l-4 0 0 6zm0 9l5 0c1,0 2,0 2,0 1,0 1,0 2,-1 0,0 0,0 1,-1 0,0 0,-1 0,-1 0,-1 0,-2 -1,-2 0,-1 0,-1 -1,-1 -1,-1 -2,-1 -3,-1l-5 0 0 7zm15 -5c0,-2 1,-4 2,-6 1,-1 3,-1 5,-1 2,0 3,0 5,2 1,1 1,3 1,5 0,2 0,3 0,4 -1,1 -2,2 -3,3 -1,0 -2,1 -3,1 -2,0 -4,-1 -5,-2 -1,-2 -2,-3 -2,-6zm3 0c0,2 0,3 1,4 1,1 2,2 3,2 1,0 2,-1 3,-2 1,-1 1,-2 1,-4 0,-2 0,-3 -1,-4 -1,-1 -2,-1 -3,-1 -1,0 -2,0 -3,1 -1,1 -1,2 -1,4zm13 7l0 -14 2 0 0 2c1,-1 3,-2 5,-2 1,0 2,0 2,0 1,1 2,1 2,1 0,1 1,2 1,2 0,1 0,1 0,3l0 8 -3 0 0 -8c0,-1 0,-2 0,-3 0,0 0,0 -1,-1 0,0 -1,0 -2,0 -1,0 -1,0 -2,1 -1,0 -1,2 -1,4l0 7 -3 0zm15 -7c0,-2 0,-4 2,-6 1,-1 3,-1 4,-1 2,0 4,0 5,2 1,1 2,3 2,5 0,2 0,3 -1,4 0,1 -1,2 -2,3 -1,0 -2,1 -4,1 -2,0 -3,-1 -5,-2 -1,-2 -1,-3 -1,-6zm2 0c0,2 0,3 1,4 1,1 2,2 3,2 1,0 2,-1 3,-2 1,-1 1,-2 1,-4 0,-2 0,-3 -1,-4 -1,-1 -2,-1 -3,-1 -1,0 -2,0 -3,1 -1,1 -1,2 -1,4zm14 7l0 -14 2 0 0 2c0,-1 1,-1 2,-2 0,0 1,0 2,0 1,0 2,0 3,0 1,1 1,1 1,2 1,-1 3,-2 5,-2 1,0 2,0 3,1 1,1 1,2 1,4l0 9 -2 0 0 -9c0,-1 0,-1 -1,-2 0,0 0,0 0,-1 -1,0 -1,0 -2,0 -1,0 -2,0 -2,1 -1,1 -1,2 -1,3l0 8 -3 0 0 -9c0,-1 0,-2 0,-2 -1,-1 -1,-1 -2,-1 -1,0 -2,0 -2,0 -1,1 -1,1 -1,2 -1,1 -1,2 -1,3l0 7 -2 0zm22 -7c0,-2 0,-4 2,-6 1,-1 3,-1 4,-1 2,0 4,0 5,2 1,1 2,3 2,5 0,2 0,3 -1,4 0,1 -1,2 -2,3 -1,0 -2,1 -4,1 -2,0 -3,-1 -4,-2 -2,-2 -2,-3 -2,-6zm2 0c0,2 1,3 1,4 1,1 2,2 3,2 2,0 3,-1 3,-2 1,-1 2,-2 2,-4 0,-2 -1,-3 -2,-4 0,-1 -1,-1 -3,-1 -1,0 -2,0 -3,1 0,1 -1,2 -1,4zm15 7l0 -2 2 0 0 2c0,1 0,2 0,3 -1,0 -1,1 -2,1l-1 -1c1,0 1,0 1,-1 1,0 1,-1 1,-2l-1 0zm14 0l0 -19 15 0 0 2 -12 0 0 6 11 0 0 2 -11 0 0 7 12 0 0 2 -15 0zm17 -4l3 0c0,1 0,1 1,2 1,0 1,1 3,1 1,0 1,-1 2,-1 1,0 1,-1 1,-2 0,0 0,-1 -1,-1 0,0 -1,0 -2,-1 -2,0 -3,-1 -4,-1 -1,0 -1,-1 -2,-1 0,-1 0,-1 0,-2 0,-1 0,-1 0,-2 1,0 1,-1 2,-1 0,-1 0,-1 1,-1 1,0 1,0 2,0 1,0 2,0 3,0 1,1 2,1 2,2 0,0 1,1 1,2l-3 0c0,-1 0,-1 -1,-2 0,0 -1,0 -2,0 -1,0 -2,0 -2,0 -1,1 -1,1 -1,2 0,0 0,0 1,0 0,1 0,1 0,1 1,0 1,0 3,1 1,0 2,1 3,1 1,0 1,1 2,1 0,1 0,1 0,2 0,1 0,2 0,2 -1,1 -2,2 -2,2 -1,0 -2,1 -3,1 -2,0 -4,-1 -5,-2 -1,0 -1,-1 -2,-3zm24 10l0 -7c0,0 -1,1 -1,1 -1,0 -2,1 -2,1 -2,0 -4,-1 -5,-2 -1,-2 -2,-4 -2,-6 0,-1 1,-3 1,-4 1,-1 1,-2 2,-2 1,-1 2,-1 3,-1 2,0 3,1 4,2l0 -2 3 0 0 20 -3 0zm-7 -13c0,2 0,3 1,4 1,1 2,2 3,2 1,0 2,-1 2,-2 1,-1 1,-2 1,-4 0,-2 0,-3 -1,-4 0,-1 -1,-1 -2,-1 -1,0 -2,0 -3,1 -1,1 -1,2 -1,4zm14 7l0 -2 3 0 0 2 -3 0z"></path>
  </g>
 </g>
</svg>