<svg xmlns="http://www.w3.org/2000/svg" xmlns:xlink="http://www.w3.org/1999/xlink" xml:space="preserve" width="163px" height="163px" fill-rule="evenodd" clip-rule="evenodd" viewBox="0 0 168 168">
 <g id="Capa_x0020_1">
  <metadata id="CorelCorpID_0Corel-Layer"></metadata>
  <path fill="#58557E" fill-rule="nonzero" d="M107 168l-2 0c-4,0 -7,-3 -7,-7 0,-6 2,-12 4,-18 1,-5 10,-35 13,-38 0,-2 3,-3 6,-3l12 0 0 -26c-2,1 -3,2 -5,3 0,2 1,10 0,12 0,1 0,2 -1,2l-35 0 0 73c0,1 -1,2 -2,2l-1 0c-1,0 -2,-1 -2,-2l0 -73 -6 0 0 73c0,1 -1,2 -2,2l-1 0c-1,0 -2,-1 -2,-2l0 -73 -34 0c-3,0 -2,-4 -2,-6 0,-2 0,-6 0,-8 -2,-1 -3,-2 -4,-3l0 26 12 0c4,0 6,2 7,3 2,3 10,33 12,38 1,5 4,13 4,16 0,5 -3,8 -7,9l-3 0c-1,0 -1,0 -2,-1 -4,-2 -7,-11 -9,-15 -5,-8 -7,-15 -10,-21 -1,-2 -2,-4 -3,-6 0,7 0,15 0,23 0,2 0,18 0,19 -1,0 -1,1 -2,1l-33 0c-1,0 -2,-1 -2,-2l0 -48c0,-3 4,-2 5,-2l0 -54c0,-4 2,-7 5,-9 1,0 2,1 2,2 1,0 1,0 1,0 1,1 1,0 1,2 -3,0 -4,4 -4,7l0 52 28 0c1,0 1,1 2,2 0,1 1,2 1,3l10 19c1,2 2,4 2,6l3 7c1,2 2,4 3,6 1,2 2,5 5,3 3,-1 2,-3 1,-6l-6 -21c-2,-5 -3,-9 -5,-14 -1,-4 -2,-11 -4,-14 -21,0 -20,2 -20,-8 0,-9 0,-19 0,-28l-6 -5c-1,0 -3,-1 -3,-3 0,-2 2,-3 3,-3 1,0 5,4 6,5 1,0 2,1 3,2 2,1 12,10 13,10l16 0c2,0 3,-1 3,-3 0,-4 -13,-2 -18,-2 0,0 -16,-13 -16,-14 1,-1 3,-1 4,-2 3,1 5,4 8,6 2,1 5,5 9,5 3,0 10,-1 13,0 2,0 6,3 6,7l-1 3 28 0c0,-1 0,-1 0,-2 0,-4 2,-8 6,-8 5,-1 14,1 17,-1 3,-3 9,-8 12,-10 2,1 3,1 5,2 0,2 -6,5 -7,6 -1,1 -8,8 -10,8 -4,0 -18,-2 -18,2 0,2 1,3 3,3l16 0c1,0 12,-9 14,-11 1,0 2,-1 3,-2 1,0 4,-4 5,-4 4,0 5,2 4,4 0,1 -8,6 -10,7 0,9 0,19 0,28 0,2 1,5 0,6 -1,2 -3,2 -5,2 -4,0 -9,0 -13,0 -1,1 -1,0 -1,1 -1,4 -10,31 -11,35 -1,2 -2,5 -3,8 -1,4 -5,12 1,12 2,0 3,-4 4,-5l8 -16c0,-1 1,-2 1,-3 2,-4 4,-8 6,-12l4 -9c0,-1 1,-2 2,-2l27 0 0 -52c0,-3 -1,-7 -4,-7 1,-2 0,-1 1,-2l3 -2c3,2 5,5 5,9l0 54c2,0 5,-1 5,2l0 48c0,1 -1,2 -2,2l-32 0c-1,0 -2,-1 -2,-1 -1,-2 0,-40 0,-42 -2,2 -5,10 -6,11 0,1 -1,2 -1,3l-3 6c-1,5 -7,18 -10,20 0,1 -2,2 -2,2 -1,1 -2,1 -3,1l0 0zm-65 -121c0,9 8,7 17,7 2,0 3,-1 4,1 9,8 24,10 35,5 1,-1 3,-2 4,-3 6,-4 1,-3 15,-3 3,0 10,2 10,-7 0,-1 -1,-3 -2,-3 -1,-1 -1,-1 -1,-2 -1,0 -1,-1 -2,-1 0,-1 0,-1 -1,-2l-5 -6c-1,-1 0,-2 -1,-6 0,-4 -3,-9 -5,-13 -1,-1 -2,-2 -2,-3 -5,-6 -14,-11 -22,-11 -9,0 -13,1 -19,5 -2,2 -4,4 -6,6 -5,7 -7,12 -7,20 0,2 0,1 0,2 -1,1 -1,1 -1,1l-7 6c-1,2 -4,5 -4,7l0 0zm37 -23c0,4 5,4 10,6 5,2 6,4 6,8 0,5 -4,7 -8,7l0 5c-1,0 -1,0 -2,0 -2,0 -2,-2 -2,-5 -3,0 -5,-1 -6,-1 -4,-3 -5,-7 -1,-7 2,0 2,4 10,4 3,0 5,-1 5,-4 0,-5 -16,-3 -16,-12 0,-3 1,-5 4,-7 4,-1 4,1 4,-1 1,-3 0,-5 2,-5 1,0 1,1 2,1 0,6 0,4 3,5 6,2 5,6 2,6 0,0 -2,-1 -2,-1 -5,-3 -11,-1 -11,1l0 0zm-56 30l3 0c6,0 12,-7 12,-13 0,-6 -3,-10 -7,-12 -11,-6 -24,6 -19,16 0,1 1,1 1,2 2,4 7,7 10,7l0 0zm108 -15l0 2c0,6 5,13 12,13 3,0 6,0 9,-3l2 -1c8,-10 0,-23 -10,-23 -5,0 -9,3 -12,7 0,1 -1,4 -1,5zm-86 45c0,-1 0,-1 1,-1l76 0c2,0 1,2 1,5l-78 0 0 -4 0 0z"></path>
 </g>
</svg>