<svg xmlns="http://www.w3.org/2000/svg" xmlns:xlink="http://www.w3.org/1999/xlink" xml:space="preserve" width="310px" height="256px" fill-rule="evenodd" clip-rule="evenodd" viewBox="0 0 313 258">
 <defs>
   <clipPath id="id0">
    <path d="M0 0l313 0 0 258 -313 0 0 -258z"></path>
   </clipPath>
 </defs>
 <g id="Capa_x0020_1">
  <metadata id="CorelCorpID_0Corel-Layer"></metadata>
  <g clip-path="url(#id0)">
   <image x="0" y="0" width="313" height="258" xlink:href="historial-probado-abogados-2_Images\historial-probado-abogados-2_ImgID1.png"></image>
  </g>
  <path fill="#1F546E" d="M134 236c-2,4 -5,7 -8,9 -5,4 -12,6 -18,6 -9,0 -21,-3 -24,-13 -2,-5 3,-10 7,-14 0,0 1,-1 2,-2 -3,-2 -6,-3 -9,-5 -3,-2 -6,-4 -8,-6 -1,-1 -2,-2 -3,-2 -6,3 -11,5 -18,5 -14,0 -22,-12 -27,-24 -1,-4 2,-7 5,-9 2,-2 5,-3 8,-3 1,-1 2,-1 3,-2 -3,-4 -5,-8 -7,-13 -1,-3 -2,-6 -3,-9 -12,-1 -22,-4 -27,-15 -3,-5 -4,-11 -3,-17 0,-4 2,-11 7,-11 6,0 10,0 15,1 -1,-8 0,-15 1,-23 -4,-1 -8,-4 -10,-7 -10,-12 -7,-33 5,-43 0,0 0,0 1,0 4,-3 11,2 15,5 1,1 2,2 4,3 0,-1 1,-3 2,-4 -4,-17 5,-38 23,-40 2,-1 4,0 5,2 0,0 0,1 1,1 0,1 1,2 2,3 2,4 3,8 4,12 2,13 -4,22 -15,28 -2,3 -6,13 -10,20 1,0 3,0 4,0 5,0 14,2 18,7 0,1 1,2 1,3 0,2 0,3 0,5 4,-9 9,-19 13,-28 2,-4 4,-9 6,-13 1,-1 2,-3 3,-4 1,-2 4,-3 6,-3 8,2 16,4 23,6 5,0 9,1 14,1 1,0 3,0 5,0 -2,-3 -3,-6 -2,-9 0,-5 3,-9 7,-12 2,-1 4,-1 6,0 4,3 7,7 7,12 1,3 0,7 -2,9 2,0 4,0 5,0 5,0 9,-1 14,-1 7,-2 15,-4 23,-6 2,0 5,1 6,3 1,1 2,3 3,4 2,4 4,9 6,13 4,9 9,19 13,28 0,-2 0,-3 0,-5 0,-1 1,-2 1,-3 4,-5 13,-7 18,-7 1,0 3,0 4,0 -4,-7 -8,-17 -10,-20 -11,-6 -17,-15 -15,-28 1,-4 2,-8 4,-12 1,-1 2,-2 2,-3 1,0 1,-1 1,-1 1,-2 3,-3 5,-2 18,2 27,23 23,40 1,1 2,3 2,4 2,-1 3,-2 4,-3 4,-3 11,-8 15,-5 1,0 1,0 1,0 6,5 9,13 10,21 2,12 -3,25 -15,29 1,8 2,15 1,23 5,-1 9,-1 15,-1 5,0 7,7 7,11 1,6 0,12 -3,17 -5,11 -15,14 -27,15 -1,3 -2,6 -3,9 -2,5 -4,9 -7,13 1,1 2,1 3,2 3,0 6,1 8,3 3,2 6,5 5,9 -5,12 -13,24 -27,24 -7,0 -12,-2 -18,-5 -1,0 -2,1 -3,2 -2,2 -5,4 -8,6 -3,2 -6,3 -9,5 1,1 2,2 2,2 4,4 9,9 7,14 -3,10 -15,13 -24,13 -6,0 -13,-2 -18,-6 -3,-2 -6,-5 -8,-9 -2,1 -4,1 -5,1 -5,0 -11,0 -16,0 -5,0 -11,0 -16,0 -1,0 -3,0 -5,-1zm72 -191c0,1 0,2 1,2 0,2 21,49 21,51l-44 0c6,-16 14,-38 22,-53zm-102 0c0,1 0,2 -1,2 0,2 -21,49 -21,51l44 0c-6,-16 -14,-38 -22,-53zm35 174c0,1 0,1 0,2 8,2 24,2 32,0 0,-1 0,-1 0,-2 -11,0 -21,0 -32,0zm-9 12c0,3 -3,7 -7,11 -9,7 -32,6 -35,-5 -1,-4 10,-13 14,-16 -5,-1 -25,-15 -29,-18 -7,4 -28,18 -40,-15 -1,-3 16,-8 19,-8 -9,-13 -10,-20 -15,-31 -16,0 -22,-6 -26,-12 -4,-10 -2,-21 0,-21 9,0 13,0 20,3 -1,-12 0,-24 2,-34 -21,-2 -21,-32 -8,-42 3,-2 18,10 17,13 0,0 0,0 0,0 0,0 6,-11 7,-13 -4,-15 4,-33 19,-35 0,0 18,25 -7,37 -2,2 -14,30 -15,34 6,-8 22,-5 26,0 0,0 0,0 0,1 1,10 -3,18 -10,20 -5,2 -12,1 -20,-3 -1,14 0,26 2,35 0,-4 18,-9 21,-7 7,9 5,26 -12,30l0 0c0,0 0,0 -1,1 0,0 0,0 0,0 3,7 11,20 15,25 1,0 1,0 1,0 0,-4 10,-14 13,-14 0,0 0,0 1,0 16,1 18,28 4,32 5,6 20,13 27,15 0,-9 1,-10 5,-18 0,0 -1,0 0,0 2,-1 12,1 15,2 0,0 0,0 0,0l0 1c0,-1 0,-1 0,-2 0,0 2,-4 6,-4 4,0 7,0 11,0 0,0 0,0 0,0 0,-1 0,-3 0,-3l-4 0 0 -5 4 0 0 -1 -4 0 0 -5 4 0c0,-1 0,-3 0,-5 -8,0 -17,-9 -21,-15 -14,-1 -28,-19 -23,-33l16 0c1,0 1,1 1,1 0,-3 1,-6 1,-6l23 0c0,-12 7,-23 5,-36 0,-4 -2,-8 -3,-12 -3,-9 -1,-14 0,-19 -20,0 -33,-6 -44,-11 9,18 18,36 27,53 1,1 1,2 1,2 1,8 -14,16 -28,17 -18,0 -32,-12 -29,-17 14,-29 26,-58 28,-57 4,1 14,4 24,5 10,2 21,3 23,2 0,-1 2,-5 2,-5 -2,-1 -4,-5 -4,-9 1,-2 2,-5 6,-8 0,0 0,0 0,0 4,3 5,6 6,9 0,3 -2,7 -4,8 0,0 2,4 2,5 2,1 13,0 23,-2 10,-1 20,-4 24,-5 2,-1 14,28 28,57 3,5 -11,17 -29,17 -14,-1 -29,-9 -28,-17 0,0 0,-1 1,-2 9,-17 18,-35 27,-53 -11,5 -24,11 -44,11 1,5 3,10 0,19 -1,4 -3,8 -3,12 -2,13 5,24 5,36l23 0c0,0 1,3 1,6 0,0 0,-1 1,-1l16 0c5,14 -9,32 -23,33 -4,6 -13,15 -21,15 0,2 0,4 0,5l4 0 0 5 -4 0 0 1 4 0 0 5 -4 0c0,0 0,2 0,3 0,0 0,0 0,0 4,0 7,0 11,0 4,0 6,4 6,4 0,1 0,1 0,2l0 -1c0,0 0,0 0,0 3,-1 13,-3 15,-2 3,1 4,16 1,19 8,-2 26,-10 31,-16 -14,-4 -12,-31 4,-32 1,0 1,0 1,0 3,0 13,10 13,14 0,0 0,0 1,0 4,-5 12,-18 15,-25 0,0 0,0 0,0 -1,-1 -1,-1 -1,-1l0 0c-17,-4 -19,-21 -12,-30 3,-2 21,3 21,7 2,-9 3,-21 2,-35 -8,4 -15,5 -20,3 -7,-2 -11,-10 -10,-20 0,-1 0,-1 0,-1 4,-5 20,-8 26,0 -1,-4 -13,-32 -15,-34 -25,-12 -7,-37 -7,-37 15,2 23,20 19,35 1,2 7,13 7,13 0,0 0,0 0,0 -1,-3 14,-15 17,-13 13,10 13,40 -8,42 2,10 3,22 2,34 7,-3 11,-3 20,-3 2,0 4,11 0,21 -4,6 -10,12 -26,12 -5,11 -6,18 -15,31 3,0 20,5 19,8 -12,33 -33,19 -40,15 -4,3 -24,17 -29,18 4,3 15,12 14,16 -3,11 -26,12 -35,5 -4,-4 -7,-8 -7,-11 -4,2 -46,2 -50,0zm9 -33c0,0 -1,2 -1,2 2,3 3,5 3,9 9,0 19,0 28,0 0,-4 1,-6 3,-9 0,0 -1,-2 -1,-2 -11,0 -21,0 -32,0zm10 10c0,0 0,0 0,0 0,-1 0,-4 0,-5 4,0 8,0 12,0 0,1 0,4 0,5 0,0 0,0 0,0l-12 0zm-22 -54c-4,-6 -6,-14 -5,-25 -1,5 -6,3 -12,3 0,18 12,15 17,22zm56 0c4,-6 6,-14 5,-25 1,5 6,3 12,3 0,18 -12,15 -17,22zm-113 -53c-1,1 -3,3 -6,4 -6,2 -12,1 -18,-1 0,4 0,8 1,12 0,2 0,5 0,7 2,0 4,-1 5,-1 4,-2 12,-4 16,-1 0,0 0,1 1,1 4,6 6,14 4,21 -2,8 -8,13 -15,16 3,4 6,9 9,14 1,-2 2,-3 2,-3 3,-3 8,-8 11,-8 1,0 1,0 2,0 4,0 8,1 11,4 4,4 6,9 7,15 1,6 -1,14 -6,19 4,3 10,5 14,7 1,-4 2,-7 5,-12 0,-2 1,-3 3,-4 3,-1 8,0 11,1 1,0 2,0 3,1 2,-3 5,-5 9,-5 1,0 1,0 2,0l0 -3c0,-1 0,-1 0,-1l0 -5c0,-1 0,-2 1,-2 -6,-3 -12,-9 -15,-14 -8,-1 -15,-5 -19,-11 -7,-7 -10,-18 -7,-27 1,-2 2,-3 5,-3l13 0c0,-2 0,-3 1,-4 1,-2 3,-2 4,-2l18 0c1,-6 3,-11 4,-17 1,-4 2,-9 1,-13 0,-4 -2,-8 -3,-12 -1,-4 -2,-8 -1,-12 0,-1 0,-2 0,-3 -7,-1 -14,-2 -21,-4 -2,0 -4,-1 -6,-2 7,14 14,27 21,41 1,1 1,2 1,4 0,7 -5,12 -11,16 -7,3 -15,5 -22,6 -9,0 -18,-3 -25,-7 -3,-2 -6,-5 -7,-7 -2,-2 -2,-4 -3,-5zm170 0c-1,1 -1,3 -3,5 -1,2 -4,5 -7,7 -7,4 -16,7 -25,7 -7,-1 -15,-3 -22,-6 -6,-4 -11,-9 -11,-16 0,-2 0,-3 1,-4 7,-14 14,-27 21,-41 -2,1 -4,2 -6,2 -7,2 -14,3 -21,4 0,1 0,2 0,3 1,4 0,8 -1,12 -1,4 -3,8 -3,12 -1,4 0,8 1,11 1,7 3,12 4,19l18 0c1,0 3,0 4,2 1,1 1,2 1,4l13 0c3,0 4,1 5,3 1,1 1,3 1,5 1,8 -2,16 -8,22 -4,6 -11,10 -19,11 -3,5 -9,11 -15,14 1,0 1,1 1,2l0 5c0,0 0,0 0,1l0 3c1,0 1,0 2,0 4,0 7,2 9,5 1,-1 2,-1 3,-1 3,-1 8,-2 11,-1 5,2 6,10 6,15 0,0 0,1 0,2 5,-2 12,-5 16,-8 -5,-5 -7,-13 -6,-19 1,-10 8,-19 18,-19 1,0 1,0 2,0 3,0 8,5 11,8 0,0 1,1 2,3 3,-5 6,-10 9,-14 -7,-3 -13,-8 -15,-16 -2,-7 0,-15 4,-21 1,0 1,-1 1,-1 4,-3 12,-1 16,1 1,0 3,1 5,1 0,-2 0,-5 0,-7 1,-4 1,-8 1,-12 -6,2 -12,3 -18,1 -3,-1 -5,-3 -6,-4zm-136 -44c0,0 0,0 0,1 -2,5 -5,11 -7,16 -2,6 -5,11 -7,17 0,0 -1,1 -1,2l30 0c-2,-6 -5,-12 -7,-18 -2,-6 -5,-12 -8,-18zm102 0c-3,6 -6,12 -8,18 -2,6 -5,12 -7,18l30 0c0,-1 -1,-2 -1,-2 -2,-6 -5,-11 -7,-17 -2,-5 -5,-11 -7,-16 0,-1 0,-1 0,-1zm-89 84c0,-1 0,-3 0,-4 0,0 -1,0 -2,0 1,2 1,3 2,4zm78 -4c-1,0 -2,0 -2,0 0,1 0,3 0,4 1,-1 1,-2 2,-4z"></path>
 </g>
</svg>