<svg xmlns="http://www.w3.org/2000/svg" xmlns:xlink="http://www.w3.org/1999/xlink" xml:space="preserve" width="300px" height="300px" fill-rule="evenodd" clip-rule="evenodd" viewBox="0 0 300 300">
 <g id="Capa_x0020_1">
  <metadata id="CorelCorpID_0Corel-Layer"></metadata>
  <path fill="#1F546E" d="M22 182c0,0 0,0 0,0 -1,2 -3,3 -6,4 -2,0 -5,0 -7,-2 0,0 0,0 0,0 -2,-1 -4,-3 -4,-6l0 0c0,0 0,0 0,0l0 -1c0,0 0,0 0,0l0 0c0,0 0,0 0,0l0 -1c0,0 0,0 0,0l-1 0c0,0 0,-1 0,-1l0 0c0,0 0,0 0,0l0 0c0,0 0,0 0,0l0 -1c0,0 0,0 0,0l0 0c0,0 0,0 0,0l0 0c0,0 0,0 0,0l0 -1c0,0 0,0 0,0l0 0c0,0 0,0 0,0l0 0c0,0 0,0 0,0l0 -1c0,0 0,0 0,0l0 0c0,0 0,0 0,0l0 -1c0,0 0,0 0,0l0 0c0,0 0,0 0,0l0 -1c0,0 0,0 0,0l0 0c0,0 0,0 0,0l-1 -1c0,0 0,0 0,0 0,0 0,0 0,0l0 0c0,0 0,0 0,0 0,-1 0,-1 0,-1l0 0c0,0 0,0 0,0l0 -1c0,0 0,0 0,0l0 0c0,0 0,0 0,0l0 -1c0,0 0,0 0,0l0 0c0,0 0,0 0,0l0 0c0,-1 0,-1 0,-1l0 0c0,0 0,0 0,0l0 -1c0,0 0,0 0,0l0 0c0,0 0,0 0,0l0 -1c0,0 0,0 0,0l0 0c0,0 0,0 0,0l0 -1c0,0 0,0 0,0l0 -1c0,0 0,0 0,0l0 0c0,0 0,0 0,0l0 0c0,0 0,0 0,0l0 -1c0,0 0,0 0,0l0 0c0,0 0,0 0,0l0 0c0,0 0,0 0,0l0 -1c0,0 0,0 0,0l0 0c0,0 0,0 0,0l-1 -1c0,0 0,0 0,0l0 0c0,0 0,0 0,0l0 -1c0,0 0,0 0,0l0 0c0,0 0,0 0,0l0 -1c0,0 0,0 0,0l0 0c0,0 0,0 0,0l0 0c0,0 0,0 0,0l0 -1c0,0 0,0 0,0l0 0c0,0 0,0 0,-1 0,-2 1,-4 3,-6 2,-2 4,-3 6,-3 1,0 1,0 1,0 2,0 5,1 6,3 2,1 3,4 3,6l0 1 0 1 0 0 1 1 0 0 0 1c0,0 0,0 0,0l0 0c0,0 0,0 0,0l0 1 0 0 0 0 0 1 0 1 0 0c0,0 0,0 0,0l0 0c0,0 0,0 0,1l0 0 0 0c0,0 0,0 0,0l0 1c0,0 0,0 0,0l0 0c0,0 0,0 0,0l0 1 0 0 0 0 0 1 0 0 0 0 0 1 0 0c0,0 0,0 0,0 0,0 0,0 0,0l0 0c0,0 0,0 0,0 0,0 0,0 0,0l0 1 0 0 0 0c0,0 0,0 1,0l0 1 0 0 0 0c0,0 0,0 0,0l0 1 0 0 0 0c0,1 0,1 0,1 0,0 0,0 0,0l0 0c0,0 0,0 0,0l0 1 0 0 0 0 0 0 0 1 0 0 0 0c0,0 0,0 0,0l0 0c0,1 0,1 0,1l0 0c0,0 0,0 0,0l0 0 0 0 0 1 1 0 0 0 0 0 0 0c0,0 0,0 0,0 0,0 0,0 0,0l0 0c0,1 0,1 0,1l0 0c0,2 0,5 -2,7zm134 -67c0,0 0,0 0,0 -2,0 -5,-1 -8,-2 -1,0 -2,-1 -3,-2 -1,-1 -2,-3 -2,-4 0,-3 2,-5 4,-7 3,-1 5,-1 8,-1 5,0 10,1 14,3l3 -7c-1,0 -2,-1 -4,-1 -2,-1 -5,-2 -8,-2l-2 0c-1,0 -2,-1 -2,-2l0 -7 -4 0 0 7c0,1 0,2 -1,2l-2 0c-3,1 -5,1 -8,2 -2,1 -4,2 -5,4 -2,1 -3,3 -3,4 -1,2 -1,4 -1,6 0,2 0,5 2,7 1,1 2,2 3,3 1,1 2,1 3,2 2,0 3,1 5,1 2,1 4,1 6,1 3,1 6,2 8,3 2,0 3,1 4,2 1,1 1,3 1,4 0,3 -1,5 -4,6 -1,1 -2,1 -3,1 -2,0 -3,0 -4,0 -2,0 -4,0 -6,0 -2,0 -4,-1 -6,-1 -1,-1 -3,-1 -5,-2 0,0 -1,0 -1,-1l-3 8c0,0 0,0 1,0 1,0 3,1 4,1 2,1 4,1 6,2 2,0 4,0 6,0l1 0c1,0 2,1 2,2l0 11c0,1 -1,2 -2,2l-38 0c-1,0 -1,-1 -2,-1l0 -1c-4,-5 -8,-10 -10,-16 -2,-6 -3,-12 -4,-19 0,-7 1,-15 4,-22 3,-7 7,-14 12,-19 10,-11 24,-18 40,-18 7,-1 15,1 22,3 7,3 14,7 19,12 11,10 18,25 18,40 1,9 -1,18 -5,26 -4,9 -9,16 -17,22l-1 1c-1,0 -2,0 -3,-1l-1 -1c-2,-2 -4,-4 -7,-5 -2,-1 -5,-1 -8,-1l-11 0c-1,0 -2,-1 -2,-2l0 -11c0,-1 1,-2 2,-2l1 0c3,-1 5,-1 8,-2 2,-1 3,-2 5,-4 1,-1 2,-3 3,-4 0,-2 1,-4 1,-5 0,-3 -1,-6 -3,-8 -1,-1 -2,-2 -3,-2 -1,-1 -2,-2 -3,-2 -2,-1 -3,-1 -5,-1 -2,-1 -4,-1 -6,-2zm28 78c0,0 1,0 2,0 2,0 7,0 8,-1 2,-1 4,-3 6,-5 3,-3 5,-6 8,-9 3,-3 5,-6 8,-9 5,-5 11,-11 17,-15 4,-3 10,-7 16,-5 1,0 2,1 3,1 1,1 1,1 2,2 3,2 5,6 6,9 0,4 -1,8 -3,11 0,1 -1,2 -2,3 -3,4 -7,8 -10,12 -6,5 -11,11 -16,16 -3,3 -6,5 -8,8 -5,5 -10,9 -15,14 -2,1 -3,3 -5,4 -1,1 -3,2 -4,3 -2,1 -5,1 -7,1 -5,0 -9,0 -13,0 -12,0 -25,0 -37,0 -2,0 -4,0 -6,0 -10,0 -21,0 -31,0 -4,0 -7,0 -11,0 -2,0 -4,0 -6,0 -2,1 -3,2 -5,3 0,1 -1,1 -1,2l-28 28c-1,1 -2,1 -3,2 -1,2 -3,3 -4,5 -2,3 -5,5 -9,7 -5,3 -10,3 -16,1 -4,-2 -7,-6 -8,-11 -1,-5 -1,-9 -1,-14 0,-2 0,-5 0,-7 0,-2 0,-4 0,-6 0,-3 0,-6 0,-9 0,-2 0,-4 1,-7 1,-6 11,-15 16,-20 1,-1 3,-3 4,-4 5,-6 11,-12 16,-17 4,-4 8,-8 12,-12 10,-11 17,-12 32,-12l1 0c9,0 19,0 28,0 18,0 36,0 54,0l1 0c0,0 0,0 1,0l0 1c1,1 3,2 4,3 2,3 3,6 4,10 0,4 0,8 -2,11 -1,1 -2,3 -3,4 -1,1 -3,1 -4,2 2,0 5,0 8,0zm-105 76c2,-2 3,-4 6,-5 2,-1 5,0 7,1l0 0c0,0 0,0 0,0l1 0c0,0 0,0 0,0l0 0c0,0 0,0 0,0 0,0 0,1 0,1l1 0c0,0 0,0 0,0l0 0c0,0 0,0 0,0 0,0 0,0 0,0l1 0c0,0 0,0 0,0l0 0c0,0 0,0 0,0 0,0 0,0 0,1l1 0c0,0 0,0 0,0l0 0c0,0 0,0 0,0l1 0c0,0 0,0 0,0l0 0c0,0 0,0 0,0l1 1c0,0 0,0 0,0l0 0c0,0 0,0 0,0l1 0c0,0 0,0 0,0l0 0c0,0 0,0 0,0l0 0c0,0 0,0 0,0l1 0c0,0 0,0 0,0l0 1c0,0 0,0 0,0l1 0c0,0 0,0 0,0l0 0c0,0 0,0 0,0l1 0c0,0 0,0 0,0l0 0 0 1 1 0c0,0 0,0 0,0l0 0 1 0c0,0 0,0 0,0l0 0 0 0 1 1c0,0 0,0 0,0l0 0 1 0 0 0c0,0 0,0 0,0l1 0 0 0 0 0 1 0 0 1c0,0 0,0 0,0l1 0 0 0 0 0c0,0 0,0 0,0l1 0 0 0 0 0 1 0 0 1 0 0c0,0 0,0 0,0 2,0 4,2 6,4 1,3 1,5 0,8 0,2 -2,4 -4,5 -3,1 -5,2 -8,1 0,0 0,0 0,0l0 0c0,0 0,0 0,0l-1 0c0,0 0,0 0,-1l0 0c0,0 0,0 0,0l-1 0c0,0 0,0 0,0l0 0c0,0 0,0 0,0l0 0c0,0 0,0 -1,0l0 0c0,0 0,0 0,0l0 0c0,0 0,0 0,0l0 0c0,0 0,0 0,0l-1 -1c0,0 0,0 0,0l-1 0c0,0 0,0 0,0l0 0c0,0 0,0 0,0l0 0c0,0 0,0 0,0l-1 0c0,0 0,0 0,0l-1 -1c0,0 0,0 0,0l0 0c0,0 0,0 0,0l-1 0c0,0 0,0 0,0l0 0c0,0 0,0 0,0l-1 0c0,0 0,0 0,0l0 -1c0,0 0,0 0,0l-1 0c0,0 0,0 0,0l0 0c0,0 0,0 0,0l0 0c0,0 0,0 0,0l-1 0c0,0 0,0 0,0l-1 -1c0,0 0,0 0,0l0 0c0,0 0,0 0,0l0 0c0,0 0,0 0,0l-1 0c0,0 0,0 0,0l0 0c0,0 0,0 0,0l-1 0c0,0 0,-1 0,-1l0 0c0,0 0,0 0,0l0 0c0,0 0,0 0,0l-1 0c0,0 0,0 0,0l-1 0c0,0 0,0 0,0l0 0c0,0 0,-1 0,-1l0 0c-1,0 -1,0 -1,0l0 0c0,0 0,0 0,0l0 0c0,0 0,0 0,0l-1 0c0,0 0,0 0,0l-1 -1c0,0 0,0 0,0l0 0c0,0 0,0 0,0l-1 0c0,0 0,0 0,0l0 0c0,0 0,0 0,0l-1 -1 0 0c0,0 0,0 0,0l0 0c0,0 0,0 0,0l-1 0c-2,-1 -4,-3 -4,-6 -1,-2 -1,-5 0,-7l0 0c0,0 0,0 0,0zm62 9c0,0 0,0 0,0l1 0 1 0 1 0 1 1 0 0 1 0 1 0 1 0 1 0 0 0 1 0 1 0 1 0 1 0 1 0 0 0 1 0 1 0 1 -1 1 0 0 0 1 0 1 0 1 0 1 0c0,0 0,0 0,0l0 0c3,0 5,1 7,2 2,2 3,4 3,7 1,2 0,5 -2,7 -1,2 -4,3 -6,3 0,0 0,0 0,0l0 0c0,0 -1,0 -1,0l-1 0c0,0 0,0 0,0l0 0c0,0 -1,0 -1,0l0 0c0,0 0,0 0,0l-1 0c0,0 0,0 0,0l-1 0c0,0 0,0 0,0l-1 1c0,0 0,0 0,0l-1 0c0,0 0,0 0,0l-1 0c0,0 0,0 0,0l-1 0c0,0 0,0 0,0l-1 0c0,0 0,0 0,0l-1 0c0,0 0,0 0,0l-1 0c0,0 0,0 0,0l-1 0 -1 0 -1 0 -1 0c0,0 0,0 0,0l0 0c0,0 0,0 0,0l-1 0c0,0 0,0 0,0l-1 0c0,0 0,0 0,0l-1 0c0,0 0,0 0,0l-1 0c0,0 0,0 0,0l-1 0c0,0 0,0 0,0l-1 -1c0,0 0,0 0,0l-1 0c0,0 0,0 0,0l-1 0c-2,0 -5,-1 -6,-3 -2,-2 -3,-4 -3,-7 0,-2 2,-5 3,-6 2,-2 5,-3 7,-3zm55 -8l1 0 1 0 1 -1c0,0 0,0 0,0l1 0 1 -1c0,0 0,0 0,0l0 0c0,0 0,0 0,0l1 0 1 -1c0,0 0,0 0,0l0 0 1 0c0,0 0,0 0,0l1 -1c0,0 0,0 0,0l1 0c0,0 0,0 0,0l0 0c0,0 0,0 0,0l1 -1c0,0 0,0 0,0l1 0c0,0 0,0 0,0l0 0 1 -1c0,0 0,0 0,0l1 0c0,0 0,0 0,0l0 0 1 -1c2,-1 5,-1 7,-1 3,1 5,3 6,5 1,2 1,5 1,7 -1,3 -3,5 -5,6l-1 0c0,0 0,0 0,0l0 1c0,0 -1,0 -1,0l0 0c0,0 0,0 0,0l-1 1c0,0 0,0 0,0l-1 0c0,0 0,0 0,0l-1 0c0,0 0,1 0,1l0 0c0,0 0,0 0,0l-1 0c0,0 0,0 0,0l-1 1c0,0 0,0 0,0l-1 0c0,0 0,0 0,0l-1 0c0,0 0,0 0,0l0 1c0,0 -1,0 -1,0l0 0c0,0 0,0 0,0l-1 0c0,0 0,1 0,1l-1 0c0,0 0,0 0,0l-1 0c0,0 0,0 0,0l-1 1c0,0 0,0 0,0l0 0c0,0 0,0 0,0l-1 0c0,0 0,0 0,0l-1 0c0,0 0,1 0,1l-1 0c0,0 0,0 0,0l-1 0c0,0 0,0 0,0l0 0c0,0 -1,0 -1,1l0 0c0,0 0,0 -1,0l0 0c0,0 0,0 0,0l-1 0c0,0 0,0 0,0l-1 1c-2,0 -5,0 -7,-1 -2,-1 -4,-3 -5,-5 -1,-3 0,-5 1,-8 1,-2 3,-4 5,-4l1 -1 1 0 1 -1 1 0c0,0 0,0 0,0zm53 -10c-2,1 -4,2 -7,2 -2,0 -5,-1 -6,-3 -2,-2 -3,-4 -3,-7 0,-2 1,-5 3,-6 0,0 0,-1 0,-1l1 0 0 -1 1 0 1 -1 0 0 1 -1 0 0 1 -1 0 0 1 -1 0 0 1 -1 0 -1 1 0 0 -1 1 0 1 -1 0 0c0,0 0,-1 0,-1l1 0 0 -1 1 0 0 -1 1 0 0 -1c0,0 0,0 0,0l1 -1 0 0 0 -1c0,0 0,0 1,0 1,-2 3,-3 6,-3 2,0 5,0 7,2 2,2 3,4 3,6 1,3 0,5 -2,7 0,0 0,0 0,0l0 1c0,0 0,0 0,0l-1 1c0,0 0,0 0,0l0 0c0,0 0,0 0,0l-1 1c0,0 0,0 0,0l0 1c0,0 0,0 0,0l-1 0c0,0 0,0 0,0l-1 1c0,0 0,0 0,0l0 1c0,0 0,0 0,0l-1 0c0,0 0,0 0,0l0 1c0,0 0,0 0,0l-1 1c0,0 0,0 0,0l-1 0c0,0 0,0 0,0l0 1c0,0 0,0 0,0l-1 1 0 0c0,0 0,0 0,0l-1 1 -1 0c0,0 0,0 0,0l0 1 -1 1c0,0 0,0 0,0l0 0c0,0 -1,0 -1,0l0 1 -1 1c0,0 0,0 0,0l0 0 -1 1c0,0 0,0 0,0l-1 0c0,0 0,0 0,0l0 1c0,0 0,0 0,0l-1 1c0,0 0,0 0,0zm35 -48c0,0 0,0 0,0l0 0c-1,2 -3,4 -5,5 -2,1 -5,1 -7,0 0,0 0,0 0,0l-1 0 0 0c0,0 0,0 0,0 -2,-1 -4,-3 -5,-6 0,-2 0,-5 1,-7l0 0c0,0 0,0 0,0l0 -1 0 -1c0,0 0,0 0,0l1 0c0,0 0,0 0,0l0 -1 0 -1c0,0 0,0 0,0l1 -1c0,0 0,0 0,0l0 0c0,0 0,0 0,0l0 -1c0,0 0,0 0,0l1 -1c0,0 0,0 0,0l0 0c0,-1 0,-1 0,-1l0 0c0,0 0,0 0,0l0 -1 1 -1 1 -2 0 -1 1 -2 0 -1 0 -2c0,0 0,0 0,0l1 -1c1,-3 2,-5 4,-6 3,-1 5,-1 8,-1 2,1 4,3 5,5 2,2 2,4 1,7 0,0 0,0 0,0l0 0c0,0 0,0 0,0l0 1c0,0 0,0 0,0l0 1c0,0 0,0 0,0l-1 1c0,0 0,0 0,0l0 1c0,0 0,0 0,0l0 1c0,0 0,0 0,0l-1 1c0,0 0,0 0,0l0 1c0,0 0,0 0,0l0 0c0,0 0,0 0,0l0 1c0,0 0,0 0,0l-1 1c0,0 0,0 0,0l0 1c0,0 0,0 0,0l0 1c0,0 0,0 0,0l-1 1c0,0 0,0 0,0l0 1c0,0 0,0 0,0l0 0c0,0 0,0 0,0l-1 1c0,0 0,0 0,0l0 1c0,0 0,0 0,0l0 1c0,0 0,0 0,0l-1 1c0,0 0,0 0,0l0 1c0,0 0,0 0,0l0 0c0,0 0,1 0,1l-1 0c0,0 0,0 0,0l0 1c0,0 0,0 0,0l0 1c0,0 0,0 0,0l-1 1zm-6 -74l0 -1 0 0 0 -1 0 -1 0 -1 0 0c0,0 0,0 0,0 -1,-3 0,-5 2,-7 1,-2 3,-4 6,-4 2,0 5,0 7,2 2,1 3,4 3,6 1,0 1,0 1,0l0 1c0,0 0,0 0,0l0 1c0,0 0,0 0,0l0 1c0,0 0,0 0,0l0 1c0,0 0,0 0,0l0 1c0,0 0,0 0,0l0 0c0,0 0,1 0,1l0 0c0,1 0,1 0,1l0 0c0,0 0,0 0,0l0 1c0,0 0,0 0,0l0 1c0,0 0,0 0,0l0 1c0,0 0,0 0,0l0 1c0,0 0,0 0,0l1 1c0,0 0,0 0,0l0 1c0,0 0,0 0,0l0 1c0,0 0,0 0,0l0 1c0,0 0,0 0,0l0 1c0,0 0,0 0,0l0 1c0,0 0,0 0,0l0 1 0 1 0 1 0 1 0 0c0,0 0,0 0,0l0 1c0,0 0,0 0,0l0 1c0,0 0,0 0,0l0 1c0,2 -2,5 -3,7 -2,1 -5,2 -7,2 -3,0 -5,-1 -7,-3 -2,-2 -3,-4 -2,-7l0 0c0,0 0,0 0,0l0 0 0 -1 0 -1 0 -1 0 -1 0 0 0 -1 0 -1 0 -1 0 -1 0 0 0 -1 -1 -1 0 -1 0 -1 0 0 0 -1 0 -1 0 -1 0 -1c0,0 0,0 0,0zm10 -41c1,2 1,5 0,7 -1,2 -3,4 -5,5 0,0 -1,0 -1,0l0 0c-2,1 -5,1 -7,0 -2,-1 -4,-3 -5,-5 0,0 0,0 0,0l0 0c0,0 0,0 0,0l0 -1 -1 -1 0 -1c0,0 0,0 0,0l0 -1 -1 -1c0,0 0,0 0,0l0 0c0,0 0,0 0,0l0 -1 -1 -1c0,0 0,0 0,0l0 0 0 -1c0,0 0,0 0,0l-1 -1c0,0 0,0 0,0l0 -1c0,0 0,0 0,0l0 0c0,0 0,0 0,0l-1 -1c0,0 0,0 0,0l0 -1c0,0 0,0 0,0l0 0 -1 -1c0,0 0,0 0,0l0 -1c0,0 0,0 0,0l0 0 -1 -1c0,0 0,0 0,0l0 -1c0,0 0,0 0,0l-1 0 0 -1c0,0 0,0 0,0l0 -1c0,0 0,0 0,0l-1 0c0,0 0,0 0,0l0 -1c0,0 0,0 0,0 -1,-2 -1,-5 -1,-7 1,-2 2,-5 5,-6 2,-1 4,-1 7,-1 2,1 4,2 5,4 1,0 1,1 1,1l0 0c0,0 0,0 0,0l0 1c0,0 0,0 0,0l1 0c0,0 0,0 0,1l0 0c0,0 0,0 0,0l1 1c0,0 0,0 0,0l0 1c0,0 0,0 0,0l0 1c0,0 0,0 0,0l1 0c0,0 0,0 0,1l0 0c0,0 0,0 0,0l1 1 0 1c0,0 0,0 0,0l0 1c0,0 0,0 1,0l0 0c0,0 0,0 0,0l0 1c0,0 0,0 0,0l1 1c0,0 0,0 0,0l0 1c0,0 0,0 0,0l0 1c0,0 0,0 0,0l1 0c0,0 0,0 0,1l0 0c0,0 0,0 0,0l0 1c0,0 0,0 0,0l1 1c0,0 0,0 0,0l0 1c0,0 0,0 0,0l0 1c1,0 1,0 1,0l0 0c0,0 0,0 0,0l0 1c0,0 0,0 0,0l0 1c0,0 0,0 0,0l1 1c0,0 0,0 0,0l0 0c0,0 0,0 0,0zm-32 -36c0,0 0,0 0,0 -2,2 -4,3 -7,3 -2,-1 -5,-1 -6,-3 0,0 -1,0 -1,0l0 -1 0 0 -1 -1 0 0 -1 -1 -1 0 0 -1 -1 0 0 -1 -1 -1 0 0 -1 -1c0,0 0,0 0,0l0 0 -1 -1 -1 0 0 -1 -1 0 0 -1c0,0 0,0 0,0l-1 0 -1 -1 0 0 -1 -1 0 0 -1 -1c0,0 0,0 0,0l-1 0 0 0 -1 -1c0,0 0,0 0,0l0 0c-2,-2 -3,-4 -4,-6 0,-3 1,-5 2,-7l0 0c0,-1 0,-1 0,-1 2,-2 4,-3 6,-3 3,0 5,0 7,2 0,0 0,0 0,0l1 0c0,0 0,0 0,0l0 0c0,0 0,0 0,0l1 1c0,0 0,0 0,0l1 0c0,0 0,0 0,0l0 1c0,0 0,0 0,0l1 1c0,0 0,0 0,0l1 0c0,0 0,0 0,0l0 1c1,0 1,0 1,0l0 0c0,0 0,0 0,0l1 1c0,0 0,0 0,0l1 0c0,0 0,0 0,0l0 1c0,0 0,0 0,0l1 1c0,0 0,0 0,0l1 0c0,0 0,0 0,0l0 1c0,0 0,0 0,0l1 0c0,0 0,0 0,0l1 1c0,0 0,0 0,0l0 0c0,0 0,1 0,1l1 0c0,0 0,0 0,0l0 1 1 0c0,0 0,0 0,0l1 1 0 1c0,0 0,0 0,0l1 0 1 1 0 0c0,0 0,0 0,0l1 1 0 0c2,2 3,5 3,7 0,3 -1,5 -3,7zm-48 -47c2,1 4,3 5,5 1,3 1,5 0,7 -1,3 -3,5 -5,6 -3,1 -5,1 -8,0 0,0 0,0 0,0 0,0 0,0 0,0l-1 -1c0,0 0,0 0,0l0 0c0,0 0,0 0,0l-1 0c0,0 0,0 0,0l-1 -1c0,0 0,0 0,0l0 0 -2 -1 -1 0 -2 -1 -1 0 -2 -1 -1 0 -2 -1c0,0 0,0 0,0l-1 0 -1 0c0,0 0,0 0,0l0 0c0,0 0,0 0,0l-1 0 -1 -1c0,0 0,0 0,0l-1 0 0 0c-3,-1 -5,-2 -6,-4 -1,-2 -2,-5 -1,-7 0,-3 2,-5 4,-6 2,-2 5,-2 7,-1 0,0 0,0 0,0l1 0c0,0 0,0 0,0l1 0c0,0 0,0 0,0l1 0c0,0 0,0 0,0l1 0c0,0 0,0 0,0l0 1c0,0 0,0 1,0l0 0c0,0 0,0 0,0l1 0c0,0 0,0 0,0l1 0c0,0 0,0 0,0l1 1c0,0 0,0 0,0l1 0c0,0 0,0 0,0l1 0c0,0 0,0 0,0l1 0c0,0 0,0 0,0l1 1c0,0 0,0 0,0l0 0c0,0 0,0 0,0l1 0c0,0 0,0 0,0l1 1c0,0 0,0 0,0l1 0c0,0 0,0 0,0l1 0c0,0 0,0 0,0l1 1c0,0 0,0 0,0l1 0c0,0 0,0 0,0l0 0c0,0 0,0 0,0l1 1c0,0 0,0 0,0l1 0c0,0 0,0 0,0l1 0c0,0 0,0 0,0l1 1c0,0 0,0 0,0l1 0c0,0 0,0 0,0 0,0 0,0 0,0zm-58 -12c3,0 5,1 7,3 2,2 3,4 3,7 0,0 0,0 0,0 0,0 0,0 0,0 0,2 -1,5 -3,7 -2,1 -4,2 -7,2 0,0 0,0 0,0 0,0 0,0 0,0l0 0 -1 0 -1 0 -1 0 -1 0 0 0 -1 0 -1 0 -1 1 -1 0 -1 0 0 0 -1 0 -1 0 -1 0c0,0 0,0 0,0l-1 0 0 0 -1 0 -1 0 -1 0 -1 0c0,0 0,0 0,0l0 0 -1 1 -1 0 -1 0c0,0 0,0 0,0l0 0c0,0 0,0 0,0l0 0c-3,0 -5,0 -8,-2 -2,-1 -3,-3 -3,-6 -1,-2 0,-5 1,-7 2,-2 4,-3 6,-4 0,0 1,0 1,0 0,0 0,0 0,0l0 0c0,0 0,0 0,0l1 0c0,0 0,0 0,0l1 0c0,0 0,0 0,0l1 0c0,0 0,0 0,0l1 -1c0,0 0,0 0,0l1 0c0,0 0,0 0,0l1 0c0,0 0,0 0,0l1 0c0,0 0,0 0,0l1 0c0,0 0,0 0,0l1 0c0,0 0,0 0,0l0 0c0,0 0,0 1,0l0 0c0,0 1,0 1,0l0 0c0,0 0,0 0,0l1 0c0,0 0,0 0,0l1 0c0,0 0,0 0,0l1 0c0,0 0,0 0,0l1 -1c0,0 0,0 0,0l1 0c0,0 0,0 0,0l1 0c0,0 0,0 0,0l1 0c0,0 0,0 0,0l1 0c0,0 0,0 0,0l1 0c0,0 0,0 0,0l1 0c0,0 0,0 0,0l1 0 1 0 0 0c0,0 0,0 0,0 0,0 0,0 0,0zm-45 18c1,2 1,4 0,6 -1,3 -3,4 -5,5l-1 1c0,0 0,0 0,0l0 0c0,0 0,0 0,0l0 0c0,0 0,0 0,0l-1 0 -1 1c0,0 0,0 0,0l0 0 -1 0c0,0 0,0 0,0l-1 1c0,0 0,0 0,0l-1 0c0,0 0,0 0,0l0 0c0,0 0,0 0,0l-1 1c0,0 0,0 0,0l-1 0c0,0 0,0 0,0l0 0 -1 1c0,0 0,0 0,0l-1 0c0,0 0,0 0,0l0 0 -1 1c0,0 0,0 0,0l-1 0c0,0 0,0 0,0l0 1 -1 0c0,0 0,0 0,0l-1 0c0,0 0,0 0,0l0 1c0,0 0,0 0,0l-1 0 -1 0 0 1 -2 1c0,0 0,0 0,0l0 0c-3,1 -5,2 -8,1 -2,0 -4,-2 -6,-4 -1,-2 -1,-5 -1,-7 1,-3 2,-5 4,-6 0,0 0,0 0,0l1 -1c0,0 0,0 0,0l1 0c0,0 0,0 0,0l1 0c0,0 0,0 0,-1l0 0c0,0 0,0 0,0l1 0c0,0 0,0 0,0l1 -1c0,0 0,0 0,0l1 0c0,0 0,0 0,0l0 -1c0,0 0,0 0,0l1 0c0,0 0,0 0,0l1 -1c0,0 0,0 0,0l1 0c0,0 0,0 0,0l1 0c0,0 0,0 0,0l0 -1c0,0 0,0 0,0l1 0c0,0 0,0 0,0l1 -1c0,0 0,0 0,0l1 0c0,0 0,0 0,0l1 0c0,0 0,-1 0,-1l0 0c0,0 0,0 0,0l1 0c0,0 0,0 0,0l1 -1c0,0 0,0 0,0l1 0c0,0 0,0 0,0l1 0c0,0 0,0 0,0l0 -1c0,0 0,0 1,0l0 0c0,0 0,0 0,0l1 0c0,0 0,-1 0,-1l1 0c0,0 0,0 0,0l0 0c3,-1 5,-1 8,0 2,1 4,3 5,5l0 0c0,0 0,1 0,1zm-51 45l-1 0 0 1 -1 0 0 1 -1 0 0 1c0,0 0,0 0,0l-1 1 0 0 -1 1 0 0 -1 1c0,0 0,0 0,0l0 1 0 0 -1 1 0 0c0,0 0,1 -1,1l0 0c0,0 0,0 0,0l0 1 -1 0 0 1c0,0 -1,0 -1,0 -1,2 -3,4 -6,4 -2,1 -5,0 -7,-1 -2,-2 -3,-4 -4,-6 0,-3 0,-5 2,-8 0,0 0,0 0,0l0 0c0,0 0,0 0,0l1 -1c0,0 0,0 0,0l0 0c0,-1 0,-1 0,-1l1 0c0,0 0,0 0,0l0 -1c0,0 0,0 0,0l1 -1c0,0 0,0 0,0l0 0c0,0 0,0 0,0l1 -1c0,0 0,0 0,0l0 -1c0,0 0,0 0,0l1 0c0,0 0,-1 0,-1l0 0c1,0 1,0 1,0l0 -1c0,0 0,0 0,0l1 -1c0,0 0,0 0,0l0 0c0,0 0,0 0,0l1 -1c0,0 0,0 0,0l0 -1c0,0 0,0 0,0l1 0c0,0 0,0 0,0l0 -1c0,0 1,0 1,0l0 -1c0,0 0,0 0,0l1 0c0,0 0,0 0,0l0 -1c0,0 0,0 0,0l1 -1c0,0 0,0 0,0l0 0c0,0 0,0 0,0l1 -1c0,0 0,0 0,0l1 -1 0 0c0,0 0,0 0,0l1 -1c2,-2 4,-3 7,-3 2,0 4,1 6,3 2,2 3,4 3,7 0,2 -1,5 -2,6l-1 1 0 1 -1 0 -1 1 0 0 -1 1 0 0c0,0 0,1 0,1zm-26 44l0 0 0 1 -1 1 0 1 0 0 0 1c0,0 0,0 0,0l0 1 -1 1 0 0 0 1 0 1c0,0 0,0 0,0l0 1 -1 0 0 1 0 1c0,0 0,0 0,0l0 1c0,0 0,0 0,0l0 0 -1 1 0 1 0 0c0,0 0,0 0,0 0,3 -2,5 -4,6 -2,2 -5,2 -7,2 -3,-1 -5,-2 -6,-4 -2,-2 -2,-5 -1,-7 0,-1 0,-1 0,-1l0 0c0,0 0,0 0,0l0 -1c0,0 0,0 0,0l0 -1c0,0 0,0 0,0l0 -1c0,0 0,0 0,0l0 0c0,-1 0,-1 0,-1l1 0c0,0 0,-1 0,-1l0 0c0,0 0,0 0,0l0 -1c0,0 0,0 0,0l0 -1c0,0 0,0 0,0l1 -1c0,0 0,0 0,0l0 -1c0,0 0,0 0,0l0 -1c0,0 0,0 0,0l0 0c0,0 0,0 0,-1l0 0c0,0 0,0 1,0l0 -1c0,0 0,0 0,0l0 -1c0,0 0,0 0,0l0 -1c0,0 0,0 0,0l1 -1c0,0 0,0 0,0l0 -1c0,0 0,0 0,0l0 0c0,0 0,0 0,0l0 -1c0,0 0,0 0,0l1 -1c0,0 0,0 0,0l0 -1 0 -1c0,0 0,0 0,0l1 -1c0,0 0,0 0,0l0 0c0,0 0,0 0,0l0 -1c1,-3 3,-4 5,-5 2,-2 5,-2 7,-1 3,1 5,3 6,5 1,3 1,5 0,8l0 0 -1 1 0 1 0 1 0 0 -1 1 0 1c0,0 0,0 0,0zm-12 68c0,0 0,0 0,-1 0,0 0,0 0,0l0 0c0,0 0,0 0,0l0 0 0 -1c0,0 0,0 0,0l0 0c0,0 0,0 0,0l0 -1c0,0 0,0 0,0l-1 0c0,0 0,0 0,0l0 0 0 0c0,0 0,0 0,0l0 0c0,-1 0,-1 0,-1l0 0c0,0 0,0 0,0l0 -1c0,0 0,0 0,0l0 0c0,0 0,0 0,0l0 -1c0,0 0,0 0,0l0 0c0,0 0,0 0,0l0 0c0,0 0,0 0,0 0,0 0,0 0,0l0 -1c0,0 0,0 0,0l0 0c0,0 0,0 0,0l0 0 0 -1c0,0 0,0 0,0l0 0c0,0 0,0 0,0l0 0c0,0 0,0 0,-1l0 0c0,0 0,0 0,0l0 0c0,0 0,0 0,0l-1 0c0,0 0,0 0,0l0 -1c0,0 0,0 0,0l0 0c0,0 0,0 0,0 0,0 0,0 0,0l0 0c0,0 0,0 0,0l0 -1c0,0 0,0 0,0l0 -1c0,0 0,0 0,0l0 0c0,0 0,0 0,0l0 -1c0,0 0,0 0,0l0 0c0,0 0,0 0,0l0 0c0,0 0,0 0,0l0 -1c0,0 0,0 0,0l0 0c0,0 0,0 0,0l0 -1c0,0 0,0 0,0l0 0c0,0 0,0 0,0l0 0c0,0 0,0 0,0l0 -1c0,0 0,0 0,0l0 0c0,0 0,0 0,0l0 0c0,0 0,0 0,0l0 -1c0,0 0,0 0,0l0 0c0,-1 0,-1 0,-1l0 0c0,0 0,0 0,0l0 0c0,-1 0,-1 0,-1l0 0c0,0 0,0 0,0l0 0c0,0 0,0 0,0l0 0c0,-1 0,-1 0,-1l0 0c0,0 0,0 0,0l-1 0c0,0 0,-1 0,-1l0 0c0,0 0,0 0,0l0 -1c0,0 0,0 0,0l0 0c0,0 0,0 0,0l0 -1c0,0 0,0 0,-1 0,0 -1,0 -1,0 0,0 0,0 0,0 -1,0 -1,0 -1,0 -1,1 -1,1 -1,1 0,1 0,1 0,1l0 0c0,1 0,1 0,1l0 0 0 1 0 0c0,0 0,0 0,0l0 1 0 0 1 1 0 0c0,0 0,0 0,0l0 1 0 0c0,0 0,0 0,0l0 1 0 1c0,0 0,0 0,1l0 0 0 1 0 0 0 1 0 0c0,0 0,0 0,0l0 0 0 1 0 0 0 1 0 0c0,0 0,1 0,1 0,0 0,0 0,0l0 0c0,0 0,0 0,0l0 1 1 0 0 0 0 1 0 0 0 0 0 0 0 1 0 0c0,0 0,0 0,0l0 0c0,0 0,0 0,0l0 1 0 0c0,0 0,0 0,0l0 1 0 0c0,0 0,0 0,0l0 0 0 1 0 0c0,0 0,0 0,0l0 0 0 0c0,1 0,1 0,1l1 0 0 0 0 1 0 0 0 0 0 0 0 1c0,0 0,0 0,1 0,0 0,0 0,0 1,0 1,0 2,0 0,0 0,0 1,-1 0,0 0,0 0,0zm99 -25l22 0c-1,0 -1,-1 -2,-1 -2,0 -4,-1 -6,-2 -1,0 -3,-1 -4,-2l-2 -1c-1,-1 -1,-2 -1,-3l8 -18c1,0 1,-1 2,-1 0,0 0,0 0,0 -1,-1 -3,-2 -4,-3 -3,-4 -4,-8 -4,-13 0,-3 0,-6 1,-9 1,-2 3,-5 5,-7 2,-2 5,-4 8,-5 2,-1 4,-1 6,-2l0 -8c0,-1 1,-2 2,-2l16 0c1,0 2,1 2,2l0 8c2,0 4,0 7,1 3,1 5,2 8,4l2 1c1,0 1,1 1,2l-8 18c0,0 0,1 -1,1 1,0 1,1 2,1 1,1 3,2 4,4 3,3 5,8 5,13 0,2 -1,5 -2,8 -1,2 -3,5 -5,7 -2,2 -4,4 -7,5 -1,1 -3,1 -4,2l3 0c4,0 8,0 11,2 3,1 5,2 7,4 5,-4 9,-10 12,-16 3,-7 5,-15 4,-23 0,-13 -6,-25 -15,-34 -5,-5 -11,-8 -17,-10 -6,-3 -12,-4 -19,-3 -13,0 -26,6 -35,15 -4,5 -7,11 -10,17 -2,6 -3,12 -3,19 0,6 2,11 4,16 1,5 4,9 7,13zm26 -24c1,0 2,1 3,1 1,0 3,1 4,1 0,0 0,0 0,0 -2,0 -3,-1 -5,-1 -1,0 -1,-1 -2,-1zm23 -19c-2,-1 -5,-2 -8,-2 1,0 1,0 2,0 2,1 4,1 6,2 0,0 0,0 0,0zm10 61c-18,0 -36,0 -53,0 -6,0 -12,0 -17,0 -4,0 -7,0 -10,0 0,0 0,0 0,0l-2 0c-12,0 -18,0 -26,10 -4,4 -8,8 -12,12 -6,5 -11,10 -16,16 -1,2 -3,3 -5,5 -3,3 -13,12 -14,16 0,2 0,4 0,6 0,2 0,5 0,8 0,2 0,4 0,6 0,2 0,5 0,7 0,4 0,8 1,12 1,2 1,4 4,5 3,2 6,2 9,0 2,-1 4,-4 6,-6 2,-1 3,-3 5,-4 0,-1 1,-2 2,-3 0,0 0,0 0,0l28 -28c1,0 1,-1 1,-1 3,-3 5,-5 10,-6 2,0 4,0 6,0 4,0 8,0 12,0 10,0 21,0 31,0 2,0 4,0 6,0 12,0 24,0 36,0 4,0 8,0 13,0 1,0 4,0 5,-1 1,0 2,-1 3,-1 1,-2 3,-3 4,-5 5,-4 10,-8 14,-13 3,-2 5,-5 8,-7 5,-6 11,-11 16,-17 3,-3 7,-7 10,-11 1,-1 1,-1 2,-2 1,-1 1,-3 1,-5 0,-2 -2,-4 -3,-5 0,0 -1,-1 -2,-1 -2,-2 -8,2 -10,4 -3,2 -5,4 -8,6 -2,3 -5,6 -8,9 -2,2 -5,5 -7,7 -3,3 -6,7 -8,10 -3,2 -5,4 -7,6 -4,2 -9,2 -13,2 -1,0 -2,0 -2,0 0,0 0,0 0,0l0 0c0,0 -1,0 -1,0 -9,0 -18,0 -27,0 -9,0 -18,0 -27,0l-2 0c-1,0 -2,-1 -2,-1 0,-1 0,-1 0,-2l0 -2c1,-2 2,-4 3,-5 1,-2 3,-3 4,-3 6,-2 15,-2 21,-1 5,0 18,1 22,-2 0,-1 1,-1 1,-2 1,-2 1,-4 1,-6 0,-2 -1,-4 -2,-6 -1,0 -1,-1 -1,-1zm-87 105l1 0c0,0 0,0 0,0l0 0c0,0 0,0 1,0l0 1c0,0 0,0 0,0l0 0c0,0 0,0 0,0l1 0c0,0 0,0 0,0l0 0c0,0 1,0 1,0l0 1c0,0 0,0 0,0l1 0c0,0 0,0 0,0l0 0c0,0 0,0 0,0l0 0c0,0 0,0 0,0l0 0c0,0 0,0 1,0l0 1c0,0 0,0 0,0l1 0c0,0 0,0 0,0l0 0c0,0 0,0 0,0l0 0c0,0 0,0 0,0l1 0c0,0 0,0 0,0l0 1c0,0 0,0 0,0l1 0c0,0 0,0 0,0l0 0c0,0 0,0 0,0l0 0c0,0 0,0 0,0l1 0c0,0 0,0 0,0l1 1c0,0 0,0 0,0l0 0c0,0 0,0 0,0l1 0c0,0 0,0 0,0l0 0 1 0 0 0c0,0 0,0 0,0l0 1 0 0 1 0 0 0c0,0 0,0 0,0l1 0 0 0 0 0 1 0c0,0 0,0 0,0l0 1 0 0 1 0 0 0 0 0 0 0c0,0 0,0 0,0l1 0 0 0 1 1c0,0 0,0 0,0l0 0 1 0 0 0 0 0 0 0 1 0c0,0 0,0 0,0l0 0c0,0 1,0 1,0 0,0 1,0 1,-1 0,0 0,-1 0,-1 -1,0 -1,-1 -1,-1 0,0 0,0 0,0l-1 0c0,0 0,0 0,0l0 0c0,0 0,0 0,0l-1 0c0,0 0,0 0,0l0 0c0,0 0,0 0,0l0 0c0,0 0,0 0,0l-1 -1c0,0 0,0 0,0l-1 0c0,0 0,0 0,0l0 0c0,0 0,0 0,0l0 0c0,0 0,0 0,0l-1 0c0,0 0,0 0,0l0 0c0,0 0,0 0,0l-1 -1c0,0 0,0 0,0l0 0c0,0 0,0 0,0l-1 0c0,0 0,0 0,0l0 0c0,0 0,0 0,0l-1 0c0,0 0,0 0,0l0 0c0,0 0,-1 0,-1l0 0c0,0 0,0 0,0l-1 0c0,0 0,0 0,0l0 0c0,0 0,0 0,0l-1 0c0,0 0,0 0,0l0 0c0,0 0,0 0,0l-1 -1c0,0 0,0 0,0l0 0c0,0 0,0 0,0l-1 0c0,0 0,0 0,0l0 0c0,0 -1,0 -1,0l0 0c0,0 0,0 0,0l0 -1c0,0 0,0 0,0l-1 0c0,0 0,0 0,0l0 0c0,0 0,0 0,0l0 0c-1,0 -1,0 -1,0l0 0c0,0 0,0 0,0l-1 -1c0,0 0,0 0,0l0 0c0,0 0,0 0,0l-1 0c0,0 0,0 0,0l0 0c0,0 0,0 0,0l0 0c0,0 0,0 0,0l-1 -1c0,0 0,0 0,0l0 0c0,0 0,0 0,0l0 0c0,0 0,0 0,0l-1 0c0,0 0,0 0,0l0 0c0,0 0,0 0,0l0 0c0,0 0,0 0,0l-1 -1c0,0 0,0 0,0l0 0c0,0 0,0 0,0l0 0c0,0 0,0 0,0l-1 0c0,0 0,0 -1,0 0,0 -1,0 -1,1l0 0c0,0 0,0 0,1 0,0 1,1 1,1l0 0c0,0 0,0 0,0zm54 14c0,0 0,0 0,0l0 0 1 1 1 0 1 0 1 0 1 0 1 0 1 0 1 0 0 0 1 0 1 0 1 0 1 0 1 0 1 0 1 0 1 0 0 0 1 -1 1 0 1 0 1 0 1 0 1 0c0,0 0,0 0,0l0 0c0,0 1,0 1,0 0,-1 0,-1 0,-2 0,0 0,0 0,-1 0,0 -1,0 -1,0 0,0 0,0 0,0l0 0c0,0 -1,0 -1,0l0 0c0,0 -1,0 -1,0l0 0c0,0 0,0 0,0l-1 0c0,0 0,0 0,0l-1 0c0,0 0,0 0,0l-1 0c0,0 0,0 0,0l-1 0c0,0 0,0 0,0l-1 0c0,0 0,0 0,0l0 1c0,0 0,0 -1,0l0 0c0,0 0,0 0,0l-1 0c0,0 0,0 0,0l-1 0c0,0 0,0 0,0l-1 0c0,0 0,0 0,0l-1 0 -1 0 -1 0 0 0 -1 0c0,0 0,0 0,0l-1 0c0,0 0,0 0,0l-1 0c0,0 0,0 0,0l-1 0c0,0 0,0 0,0l-1 0c0,0 0,0 0,0l-1 -1c0,0 0,0 0,0l0 0c-1,0 -1,0 -1,0l0 0c0,0 0,0 0,0l-1 0c-1,0 -1,0 -1,1 -1,0 -1,0 -1,1 0,0 0,1 1,1 0,0 0,0 1,0zm58 -8l0 0c0,0 0,0 0,0l1 -1 1 0c0,0 0,0 0,0l1 0 1 -1c0,0 0,0 0,0l1 0 1 -1c0,0 0,0 0,0l1 0c0,0 0,0 0,0l0 0 1 0c0,-1 0,-1 0,-1l1 0 1 0c0,0 0,0 0,0l0 -1c0,0 0,0 1,0l0 0c0,0 0,0 0,0l1 0c0,0 0,0 0,0l1 -1c0,0 0,0 0,0l1 0c0,0 0,0 0,0l0 0c0,0 0,0 0,-1l1 0 1 0c0,0 0,0 0,0l1 -1 0 0c1,0 1,-1 1,-1 0,0 0,-1 0,-1 0,0 -1,-1 -1,-1 0,0 -1,0 -1,0l-1 1c0,0 0,0 0,0l0 0c-1,0 -1,0 -1,0l0 0c0,0 0,0 0,0l-1 1 -1 0c0,0 0,0 0,0l-1 1c0,0 0,0 0,0l0 0c0,0 0,0 0,0l-1 0c0,0 0,0 0,0l-1 1c0,0 0,0 0,0l0 0c0,0 0,0 -1,0l0 0c0,0 0,0 0,0l-1 1c0,0 0,0 0,0l-1 0c0,0 0,0 0,0l-1 0c0,0 0,0 0,0l0 1c0,0 0,0 0,0l-1 0c0,0 0,0 0,0l-1 0c0,0 0,0 0,0l-1 1c0,0 0,0 0,0l0 0c0,0 0,0 0,0l-1 0c0,0 0,0 0,0l-1 0c0,0 0,1 0,1l-1 0c0,0 0,0 0,0l0 0c0,0 0,0 0,0l-1 0c0,0 0,0 0,0l-1 1c0,0 0,0 0,0l-1 0c0,0 0,0 0,0l0 0c-1,0 -1,1 -1,1 0,0 0,1 0,1 0,0 0,1 1,1 0,0 0,0 1,0l0 0 2 -1 1 0c0,0 0,0 0,0zm45 -27c0,0 0,0 0,0l0 -1 1 0 1 -1 0 -1 1 0 0 -1 1 0c0,0 0,0 0,0l1 -1c0,0 0,0 0,0l0 -1 1 0 0 -1 1 0 0 -1 1 -1 1 0 0 -1 1 0c0,0 0,-1 0,-1l0 0 1 -1 0 0 1 -1 0 -1 1 0 1 -1c0,0 0,0 0,0l0 -1 1 0 0 -1c0,0 0,0 0,0 0,0 0,0 0,-1 0,0 0,-1 0,-1 -1,0 -1,0 -1,0 -1,0 -1,0 -1,0 0,0 0,0 0,0l-1 1c0,0 0,0 0,0l0 1c0,0 0,0 0,0l-1 0c0,0 0,0 0,0l0 1c0,0 0,0 0,0l-1 0c0,0 0,0 0,0l0 1c0,0 0,0 0,0l-1 1c0,0 0,0 0,0l0 0c0,0 0,0 0,0l-1 1c0,0 0,0 0,0l-1 0c0,1 0,1 0,1l0 0c0,0 0,0 0,0l-1 1c0,0 0,0 0,0l0 0c0,0 0,0 0,0l-1 1 0 0c0,1 0,1 0,1l-1 0 0 1c0,0 -1,0 -1,0l0 0 -1 1 0 0c0,0 0,0 0,0l-1 1 0 1c0,0 0,0 0,0l-1 0 -1 1c0,0 0,0 0,0l0 0c0,0 0,0 0,0l-1 1c0,0 0,0 0,0l0 0c0,0 0,0 0,0 -1,1 -1,1 -1,1 0,1 0,1 1,2 0,0 0,0 1,0 0,0 0,0 1,0zm33 -46l0 0 1 -1c0,0 0,0 0,0l0 -1c0,0 0,0 0,0l0 -1 1 0c0,0 0,0 0,0l0 -1c0,0 0,0 0,0l0 -1c0,0 0,0 0,0l1 -1c0,0 0,0 0,0l0 -1c0,0 0,0 0,0l0 0c0,-1 0,-1 0,-1l1 0c0,0 0,0 0,0l0 -1 0 -2 1 -1 1 -2 0 -2 1 -1 0 -2c0,0 0,0 0,0l0 -1c1,-1 1,-1 0,-1 0,-1 0,-1 -1,-1 0,0 0,0 -1,0 0,0 0,1 0,1 0,0 0,0 0,0l-1 0c0,0 0,0 0,0l0 1c0,0 0,0 0,0l0 1c0,0 0,0 0,0l0 1c0,0 0,0 0,0l-1 1c0,0 0,0 0,0l0 0c0,0 0,1 0,1l0 0c0,0 0,0 0,0l0 1c0,0 0,0 0,0l-1 1c0,0 0,0 0,0l0 1c0,0 0,0 0,0l0 0c0,0 0,0 0,0l0 1c0,0 0,0 0,0l-1 1c0,0 0,0 0,0l0 1c0,0 0,0 0,0l0 1c0,0 0,0 0,0l-1 0c0,0 0,0 0,0l0 1c0,0 0,0 0,0l0 1c0,0 0,0 0,0l-1 1c0,0 0,0 0,0l0 0c0,0 0,0 0,1l0 0c0,0 0,0 0,0l-1 1c0,0 0,0 0,0l0 1c0,0 0,0 0,0l0 1c0,0 0,0 0,0l-1 0c0,0 0,0 0,0l0 1c0,0 0,0 0,0l0 1c0,0 0,0 0,1 0,0 0,0 1,1l0 0c0,0 0,0 1,0 0,-1 1,-1 1,-1l0 -1c0,0 0,0 0,0zm12 -71l0 -1 0 0 0 -1 0 -1 0 -1 0 -1c0,0 0,0 0,0 0,0 -1,0 -1,-1 0,0 -1,0 -1,0 -1,0 -1,0 -1,1 0,0 -1,0 0,1 0,0 0,0 0,0l0 0c0,0 0,0 0,0l0 1c0,0 0,0 0,0l0 1c0,0 0,0 0,0l0 1c0,0 0,0 0,0l0 1c0,0 0,0 0,0l0 0c0,0 0,1 0,1l0 0c0,0 0,0 0,0l0 1c0,0 0,0 0,0l0 1c0,0 0,0 0,0l0 1c0,0 0,0 0,0l0 1c0,0 0,0 0,0l0 1c0,0 0,0 0,0l0 1c0,0 0,0 0,0l0 0c0,0 0,0 0,0l1 1c0,0 0,0 0,0l0 1c0,0 0,0 0,0l0 1c0,0 0,0 0,0l0 1c0,0 0,0 0,0l0 1 0 1 0 1 0 0 0 1c0,0 0,0 0,0l0 1c0,0 0,0 0,0l0 1c0,0 0,0 0,0l0 1c0,0 0,0 0,1 0,0 1,0 1,0 0,0 1,0 1,0 0,-1 1,-1 1,-1l0 0c0,0 0,0 0,0l0 -1 0 -1 0 -1 0 -1 0 0 0 -1 0 -1 0 -1 0 -1 0 -1 0 -1 0 -1 0 -1 0 0 -1 -1 0 -1 0 -1 0 -1 0 -1 0 -1c0,0 0,0 0,0zm-9 -37c0,0 0,0 0,0l0 0c0,0 0,0 0,0l0 -1 0 -1 -1 -1c0,0 0,0 0,0l0 -1 -1 -1c0,0 0,0 0,0l0 -1c0,0 0,0 0,0l0 -1 -1 0c0,0 0,0 0,0l0 -1 0 -1c0,0 0,0 0,0l-1 0c0,0 0,-1 0,-1l0 0c0,0 0,0 0,0l0 -1c0,0 0,0 0,0l-1 -1c0,0 0,0 0,0l0 -1c0,0 0,0 0,0l0 0 -1 -1c0,0 0,0 0,0l0 -1c0,0 0,0 0,0l-1 -1 0 0c0,0 0,0 0,0l0 -1c0,0 0,0 0,0l-1 -1 0 -1c0,0 0,0 0,0l-1 0c0,0 0,0 0,0l0 -1c0,0 0,0 0,0l0 0c0,0 0,0 0,0 -1,-1 -1,-1 -1,-1 -1,0 -1,0 -1,0 -1,0 -1,1 -1,1 0,0 0,1 0,1 0,0 0,0 0,0l0 1c0,0 0,0 0,0l1 0c0,0 0,0 0,0l0 1c0,0 0,0 0,0l0 1c0,0 0,0 0,0l1 0c0,0 0,0 0,1l0 0c0,0 0,0 0,0l1 1c0,0 0,0 0,0l0 1c0,0 0,0 0,0l0 0c0,0 0,0 0,0l1 1 0 1c0,0 0,0 0,0l0 0c1,1 1,1 1,1l0 0c0,0 0,0 0,0l0 1c0,0 0,0 0,0l1 1c0,0 0,0 0,0l0 0c0,0 0,0 0,0l0 1c0,0 0,0 0,0l1 1c0,0 0,0 0,0l0 1c0,0 0,0 0,0l0 0c0,1 0,1 0,1l1 0c0,0 0,0 0,0l0 1c0,0 0,0 0,0l0 1c0,0 0,0 0,0l1 0c0,0 0,1 0,1l0 0c0,0 0,0 0,0l0 1c0,0 0,0 0,0l0 1c0,0 0,0 0,0l1 0c0,0 0,0 0,0 0,0 0,1 0,1 1,0 1,0 1,0l0 0c0,0 0,0 1,0 0,0 0,-1 0,-1 1,0 1,-1 0,-1zm-37 -54l0 0 -1 -1 0 0 -1 -1 -1 -1 0 0 -1 -1c0,0 0,0 0,0l-1 0 0 -1 -1 0 -1 -1 0 0c0,0 0,0 0,0l-1 -1 -1 0 0 -1 0 0c-1,0 -1,0 -2,0 0,0 0,0 -1,0l0 0c0,1 0,1 0,2 0,0 0,0 1,1l0 0c0,0 0,0 0,0l1 0c0,0 0,0 0,0l0 1c0,0 0,0 0,0l1 0c0,0 0,0 0,0l1 1c0,0 0,0 0,0l0 0c0,0 0,0 0,0l1 1c0,0 0,0 0,0l0 0c0,0 1,0 1,0l0 1c0,0 0,0 0,0l1 0c0,0 0,0 0,0l0 1c0,0 0,0 0,0l1 0c0,0 0,0 0,0l1 1c0,0 0,0 0,0l0 0c0,0 0,0 0,0l1 1c0,0 0,0 0,0l0 0c0,0 0,0 0,1l1 0c0,0 0,0 0,0l1 1c0,0 0,0 0,0l0 0c0,0 0,0 0,0l1 1 0 0c0,0 0,0 0,0l1 1 1 0c0,0 0,0 0,0l0 1 1 1 0 0c0,0 0,0 0,0l1 1 0 0c0,0 0,0 0,0 1,0 1,1 1,1 1,0 1,-1 1,-1 0,0 0,0 0,0 1,0 1,-1 1,-1 0,0 0,-1 -1,-1l0 0 0 -1 -1 -1 -1 0 0 -1 -1 0 0 -1 -1 0 -1 -1 0 -1 -1 0 0 -1c-1,0 -1,0 -1,0zm-38 -25c0,0 0,0 0,0 0,0 0,0 -1,0l0 0c0,0 0,0 0,0l-1 0c0,0 0,0 0,0l-1 -1c0,0 0,0 0,0l-1 0c0,0 0,0 0,0l-1 0c0,0 0,0 0,0l0 -1c0,0 0,0 0,0l-1 0 -2 -1 -1 0 0 0 -2 -1 -2 0 -1 -1 -2 0c0,0 0,0 0,0l-1 0 -1 -1c0,0 0,0 0,0l0 0c0,0 0,0 0,0l-1 0 -1 0c0,0 0,0 0,0l-1 -1 -1 0c0,0 0,0 -1,0 0,1 0,1 -1,1 0,1 0,1 1,2 0,0 0,0 1,0 0,0 0,0 0,0l0 0c0,0 0,0 0,0l1 1c0,0 0,0 0,0l1 0c0,0 0,0 0,0l1 0c0,0 0,0 0,0l0 0c0,0 1,0 1,0l0 1c0,0 0,0 0,0l1 0c0,0 0,0 0,0l1 0c0,0 0,0 0,0l1 0c0,0 0,0 0,0l1 0c0,1 0,1 0,1l0 0c0,0 0,0 1,0l0 0c0,0 0,0 0,0l1 0c0,0 0,0 0,0l1 1c0,0 0,0 0,0l1 0c0,0 0,0 0,0l0 0c0,0 0,0 0,0l1 0c0,0 0,0 0,0l1 1c0,0 0,0 0,0l1 0c0,0 0,0 0,0l0 0c1,0 1,0 1,0l0 1c0,0 0,0 0,0l1 0c0,0 0,0 0,0l1 0c0,0 0,0 0,0l1 1c0,0 0,0 0,0l0 0c0,0 0,0 1,0l0 0c0,0 0,0 0,0 0,0 0,0 0,0 1,0 1,0 2,0 0,0 0,0 0,-1 1,0 1,0 0,-1 0,0 0,0 0,-1zm-55 -11c0,0 0,0 0,0 0,0 0,0 0,0l0 0 -1 0 -1 0 -1 0 -1 0 -1 0 -1 0 -1 0 0 0 -1 1 -1 0 -1 0 -1 0 -1 0 -1 0c0,0 0,0 0,0l-1 0 0 0 -1 0 -1 0 -1 0 -1 0c0,0 0,0 0,0l-1 1 -1 0 -1 0 0 0c0,0 -1,0 -1,0l0 0c0,0 0,0 0,0 -1,0 -1,0 -1,1 -1,0 -1,0 -1,1 1,0 1,1 1,1 0,0 1,0 1,0 0,0 0,0 0,0l1 0c0,0 0,0 0,0l1 0c0,0 0,0 0,0l1 0c0,0 0,0 0,0l1 0c0,0 0,0 0,0l0 -1c0,0 0,0 0,0l1 0c0,0 0,0 0,0l1 0c0,0 0,0 0,0l1 0c0,0 0,0 0,0l1 0c0,0 0,0 0,0l1 0c0,0 0,0 0,0l0 0c0,0 0,0 1,0l0 0c0,0 0,0 0,0l1 0c0,0 0,0 0,0l1 0c0,0 0,0 0,0l1 0c0,0 0,0 0,0l1 0c0,0 0,0 0,0l1 0c0,0 0,0 0,0l1 0c0,0 0,0 0,0l0 -1c0,0 0,0 0,0l1 0c0,0 0,0 0,0l1 0c0,0 0,0 0,0l1 0c0,0 0,0 0,0l1 0c0,0 0,0 0,0l1 0 1 0 0 0c0,0 0,0 0,0 0,0 0,0 0,0 1,0 1,0 1,0 0,0 1,-1 1,-1 0,0 0,0 0,0 0,-1 -1,-1 -1,-1 0,-1 0,-1 -1,-1zm-55 12l-1 0c0,0 0,0 0,0l-1 0 0 0c0,1 0,1 0,1l-1 0 -1 0c0,0 0,0 0,0l0 1c-1,0 -1,0 -1,0l0 0c0,0 0,0 -1,0l0 0c0,0 0,0 0,0l-1 1c0,0 0,0 0,0l-1 0c0,0 0,0 0,0l0 0c0,0 0,0 -1,1l0 0 -1 0c0,0 0,0 0,0l-1 1 0 0c0,0 0,0 -1,0l0 0c0,0 0,0 0,0l-1 1 -1 0c0,0 0,0 0,0l0 1c0,0 0,0 0,0l-1 0c0,0 0,0 0,0l-1 1 -1 0 0 0 -2 1c0,0 0,0 0,0l0 1c-1,0 -1,0 -1,1 0,0 0,0 0,1 0,0 1,0 1,0 1,1 1,1 1,0 0,0 0,0 0,0l1 0c0,0 0,0 0,0l1 -1c0,0 0,0 0,0l0 0c0,0 0,0 0,0l1 0c0,0 0,0 0,0l1 -1c0,0 0,0 0,0l0 0c1,0 1,0 1,0l0 -1c0,0 0,0 0,0l1 0c0,0 0,0 0,0l1 0c0,0 0,0 0,-1l0 0c0,0 0,0 0,0l1 0c0,0 0,0 0,0l1 -1c0,0 0,0 0,0l0 0c0,0 0,0 1,0l0 0c0,0 0,0 0,0l1 -1 1 0c0,0 0,0 0,0l0 -1c1,0 1,0 1,0l0 0c0,0 0,0 0,0l1 0c0,0 0,0 0,0l1 -1c0,0 0,0 0,0l0 0c0,0 0,0 0,0l1 0c0,0 0,0 0,0l1 -1c0,0 0,0 0,0l1 0c0,0 0,0 0,0l0 0c0,0 1,0 1,0l0 -1c0,0 0,0 0,0l1 0c0,0 0,0 1,-1 0,0 0,0 0,0 0,0 0,-1 0,-1 -1,0 -1,-1 -1,-1 0,0 0,0 0,0 -1,0 -1,0 -2,0l0 1c0,0 0,0 0,0zm-49 35l0 0 -1 1 0 0 -1 1 -1 1 0 0 -1 1c0,0 0,0 0,0l0 1 -1 0 0 1 -1 0 0 1c0,0 0,0 0,0l-1 1 0 0 -1 1 0 1c0,0 0,0 0,0l-1 1c0,0 0,0 0,0l0 0 -1 1 -1 1c0,0 0,0 0,0 0,0 0,1 0,1 0,1 0,1 1,1 0,0 0,1 1,0 0,0 1,0 1,0 0,0 0,0 0,0l0 -1c0,0 0,0 0,0l1 0c0,0 0,0 0,0l0 -1c0,0 0,0 0,0l1 -1c0,0 0,0 0,0l0 0c0,0 0,0 0,0l1 -1c0,0 0,0 0,0l0 -1c0,0 0,0 0,0l1 0c0,0 0,0 0,0l0 -1c0,0 0,0 0,0l1 -1c0,0 0,0 0,0l0 0c0,0 0,0 0,0l1 -1c0,0 0,0 0,0l0 -1c0,0 0,0 0,0l1 0c0,0 0,0 0,0l0 -1c0,0 0,0 0,0l1 0c0,0 0,0 0,0l0 -1c0,0 0,0 0,0l1 -1c0,0 0,0 0,0l0 0c0,0 0,0 0,0l1 -1c0,0 0,0 0,0l0 0c0,-1 1,-1 1,-1l0 0c0,0 0,0 0,0l1 -1c0,0 0,0 0,0l0 0c0,0 0,0 0,0l1 -1 0 0c0,-1 0,-1 0,-1l1 0c0,0 0,-1 0,-1 0,-1 0,-1 0,-1 -1,-1 -1,-1 -1,-1 -1,0 -1,0 -1,1l-1 0 -1 1 0 1 -1 0 0 1 -1 0c0,0 0,1 0,1zm-28 48l0 0 -1 1 0 1 0 1 0 0 -1 1 0 1c0,0 0,0 0,0l0 1 0 1 -1 0 0 1 0 1c0,0 0,0 0,0l0 1 0 1 -1 0 0 1c0,0 0,0 0,0l0 1c0,0 0,0 0,0l0 1 0 1 -1 1c0,0 0,0 0,0 0,1 0,1 1,1 0,1 0,1 1,1 0,0 0,0 1,0 0,0 0,-1 0,-1 0,0 0,0 0,0l0 -1c0,0 0,0 0,0l1 -1c0,0 0,0 0,0l0 0c0,0 0,0 0,0l0 -1c0,0 0,0 0,0l0 -1c0,0 0,0 0,0l0 -1c0,0 0,0 0,0l1 -1c0,0 0,0 0,0l0 0c0,0 0,0 0,0l0 -1c0,0 0,0 0,0l0 -1c0,0 0,0 0,0l0 -1c0,0 0,0 0,0l1 -1c0,0 0,0 0,0l0 0c0,0 0,0 0,0l0 -1c0,0 0,0 0,0l0 -1c0,0 0,0 0,0l1 -1c0,0 0,0 0,0l0 0c0,-1 0,-1 0,-1l0 0c0,0 0,0 0,0l0 -1c0,0 0,0 0,0l1 -1c0,0 0,0 0,0l0 -1c0,0 0,0 0,0l0 0c0,0 0,0 0,0l0 -1c0,0 0,0 0,0l1 -1c0,0 0,0 0,0l0 -1c0,0 0,0 0,0l0 0c0,0 0,-1 0,-1l1 0c0,-1 0,-1 0,-1 -1,-1 -1,-1 -1,-1 -1,0 -1,0 -2,0 0,0 0,0 0,1l-1 0 0 1 0 1 0 1 -1 1 0 0c0,0 0,0 0,1z"></path>
  <rect fill="#58557E" stroke="black" stroke-width="0.56693" x="-120" y="59" width="68.3167" height="64.6039"></rect>
  <rect fill="#710D12" stroke="black" stroke-width="0.56693" x="-121" y="133" width="69.8021" height="63.1186"></rect>
 </g>
</svg>