<svg xmlns="http://www.w3.org/2000/svg" xmlns:xlink="http://www.w3.org/1999/xlink" xml:space="preserve" width="126px" height="216px" fill-rule="evenodd" clip-rule="evenodd" viewBox="0 0 126 216">
 <g id="Capa_x0020_1">
  <metadata id="CorelCorpID_0Corel-Layer"></metadata>
  <path fill="#58557E" fill-rule="nonzero" d="M44 54c-2,0 -7,2 -9,3 -11,4 -19,10 -27,20 -10,15 -10,35 -2,51 2,4 2,6 6,8 3,3 6,4 11,4 1,2 2,2 3,4l6 7c2,1 1,1 1,5l0 38c0,5 0,7 2,11 2,5 8,11 15,11 8,0 7,-1 13,-4 6,3 5,4 13,4 7,0 13,-6 15,-11 3,-6 2,-17 2,-24 0,-8 0,-16 0,-25 0,-1 0,-2 0,-3 0,-2 1,-2 4,-6 1,-1 5,-5 6,-7 9,0 14,-5 17,-12 8,-16 8,-35 -2,-50 -3,-4 -5,-7 -9,-10 -8,-7 -15,-11 -28,-14 2,-2 7,-5 10,-14 7,-20 -8,-40 -27,-40 -11,0 -19,4 -25,12 -2,3 -3,5 -4,8 -3,6 -3,14 -1,20 4,9 9,12 10,14zm-3 -24c0,-10 6,-16 13,-19 8,-4 18,-2 24,4 2,1 3,3 4,6 7,15 -5,30 -17,30 -8,0 -13,-1 -18,-6 -3,-4 -6,-9 -6,-15zm15 86c0,0 5,7 7,8 2,-1 2,-3 4,-4 5,-6 3,-4 2,-13l-5 -36c0,-2 1,-3 3,-6 1,-1 3,-4 4,-4 6,0 14,3 18,4 9,4 19,11 24,21 6,12 5,23 1,36 -2,4 -4,9 -9,9 2,-2 2,-2 2,-6 0,-4 -5,-7 -10,-4 1,-2 2,-5 3,-7 4,-13 0,-23 -11,-30 0,1 -4,3 -5,7l0 12c0,2 0,2 0,4l0 5c0,1 0,2 0,3 0,3 1,1 0,8 0,1 0,2 0,3l-43 0c1,-3 0,-3 0,-7 0,-2 1,-2 1,-3l-1 -5c0,-2 1,-3 1,-4l0 -16c-1,-3 -3,-6 -6,-7 0,0 -17,10 -10,30 1,2 2,5 3,7 -7,-3 -13,2 -8,10 -8,0 -12,-18 -12,-25 0,-10 2,-20 9,-27 5,-6 11,-10 19,-14 4,-1 12,-4 18,-4 1,0 4,5 6,7 2,3 1,3 0,10 -1,4 -5,34 -5,38zm35 2l0 -24c5,3 5,13 3,18 -1,2 -2,4 -3,6zm-60 -12c0,-5 0,-10 4,-12l0 24c-2,-2 -4,-9 -4,-12zm53 43c-5,-3 -7,-4 -8,-11 -1,-2 -1,-5 -1,-6l3 0 0 2c2,0 12,-5 14,-5 2,-2 4,-2 6,-3 1,-1 3,-2 4,-2 3,1 -3,7 -4,8 -2,2 -3,4 -5,6 -1,1 -2,3 -4,5 -2,2 -3,4 -5,6zm-61 -23c0,-4 8,1 13,3 2,1 4,2 6,3 1,1 4,2 6,2 -1,-1 -1,-1 -1,-2l4 0c0,1 0,10 -5,14 -2,2 -3,2 -5,3l-6 -9c-2,-1 -12,-13 -12,-14zm18 27c4,-1 7,-1 10,-7 3,-4 4,-8 4,-14l16 0c0,8 3,16 10,20 1,0 2,1 3,1 0,3 0,5 0,8l0 36c0,3 0,5 -2,6 -3,4 -8,5 -12,3 -5,-3 -5,-7 -5,-14l0 -48c0,-4 0,-3 -3,-3 -2,0 -1,3 -1,7l0 44c0,7 0,11 -5,14 -4,2 -9,1 -12,-3 -3,-3 -2,-9 -2,-15l0 -22c0,-2 0,-2 -1,-4 0,-3 1,-3 1,-5 0,-1 -1,-2 -1,-4z"></path>
 </g>
</svg>