<svg xmlns="http://www.w3.org/2000/svg" xmlns:xlink="http://www.w3.org/1999/xlink" xml:space="preserve" width="198px" height="207px" fill-rule="evenodd" clip-rule="evenodd" viewBox="0 0 227 237">
 <g id="Capa_x0020_1">
  <metadata id="CorelCorpID_0Corel-Layer"></metadata>
  <path fill="#58557E" d="M124 130c-2,-2 -5,-8 -6,-10 -4,-8 -13,-16 -22,-10 -5,3 -6,11 -4,20 2,10 9,17 8,28 0,4 -7,10 -11,13 -4,4 -8,8 -12,13 -14,12 -23,8 -34,-3l-18 -18c-2,-2 -4,-5 -7,-6 0,14 0,23 0,38 1,10 3,14 14,14l49 0c16,0 15,-2 23,-10 1,-2 2,-2 4,-4l7 -8c6,-6 12,-12 17,-18 1,-1 3,-4 4,-4 0,-1 2,-1 4,-2l45 -28c11,-8 23,-15 35,-22 3,-2 7,-4 7,-8 0,-3 -3,-8 -5,-10l-33 -54c-7,-12 -15,-23 -22,-36 -5,-9 -12,-4 -19,0l-17 11 40 42c3,3 12,10 8,18 -2,3 -23,24 -27,28 -3,2 -5,4 -7,7 -7,6 -14,13 -21,19zm-56 8c-3,-3 -7,-4 -10,-1 -3,2 -3,6 -2,10 1,3 1,6 -1,8 -2,2 -4,1 -6,-1 -3,-3 -1,-7 2,-10l0 -1c-5,4 -6,5 -7,7l0 0c1,0 1,-1 2,0 0,0 0,0 0,1 1,1 1,3 3,5 3,3 7,5 11,2 3,-3 2,-6 2,-10 -1,-5 -2,-7 0,-9 2,-1 4,-1 6,1 2,2 1,6 -2,9l1 0c3,-3 5,-4 6,-5l-1 0c-1,0 -1,0 -1,0 -1,0 -1,0 -1,-1 0,-1 -1,-3 -2,-5zm-14 -15c-3,-3 -7,-4 -10,-1 -3,2 -2,6 -2,10 1,3 1,6 -1,8 -2,2 -4,1 -6,-1 -3,-3 -1,-7 2,-10l0 -1c-4,4 -6,5 -7,7l0 0c1,0 2,-1 2,0 0,0 0,0 0,1 1,1 1,3 3,5 3,3 8,5 11,2 3,-3 3,-6 2,-10 -1,-5 -1,-7 1,-9 1,-1 3,-1 5,1 2,2 1,6 -2,9l1 0c4,-3 5,-4 6,-5l-1 0c0,0 -1,0 -1,0 0,0 -1,0 -1,-1 0,-1 0,-3 -2,-5zm-14 -14c0,-1 -1,-1 -1,-1 0,-1 0,-1 -1,-1l-20 8c-3,1 -4,1 -5,0l0 0c0,1 1,2 2,2 0,1 1,2 2,4l1 -1c-1,-1 -2,-3 0,-4 0,0 1,-1 3,-2l2 -1 6 6 -3 5c-1,1 -1,1 -1,2 -1,0 -2,0 -3,-1l0 0c1,1 2,3 3,4 2,2 3,3 4,4l0 0c0,-1 0,-2 1,-3l10 -21zm-11 9l-5 -5 9 -4 -4 9zm-16 -17l1 1c6,6 10,5 13,3 3,-3 3,-7 -2,-12 0,-1 -2,-2 -3,-4 -2,-2 -3,-3 -4,-4l0 0c1,2 1,3 -1,4l-13 12c-1,2 -2,2 -3,0l-1 1c1,1 2,2 4,4 1,1 3,3 4,4l1 0c-2,-2 -3,-3 -1,-5l5 -4zm12 -8c2,2 1,5 -2,8 -3,2 -6,4 -9,1l-1 -2 8 -7c2,-1 2,-1 4,0zm4 122l59 0c6,0 11,5 11,11l0 0c0,6 -5,11 -11,11l-59 0c-6,0 -11,-5 -11,-11l0 0c0,-6 5,-11 11,-11zm75 -158c7,7 9,16 9,25 -1,9 -5,17 -12,23 -7,6 -16,9 -24,8 -9,0 -17,-4 -23,-11 -6,-7 -9,-16 -9,-25 1,-8 5,-17 12,-23 7,-6 16,-9 24,-8 9,1 17,4 23,11zm-43 -1l7 8c3,-2 5,-4 8,-6 -1,-2 -2,-5 -3,-7 -4,0 -8,2 -12,5zm10 11l8 10 5 -5c-2,-3 -4,-6 -6,-10 -3,1 -5,3 -7,5zm11 13l9 10c2,-2 4,-5 5,-7l0 0c-3,-2 -6,-5 -9,-8l-5 5zm11 13l7 7c3,-3 6,-7 7,-11 -2,-1 -5,-2 -7,-4 -2,3 -4,5 -7,8zm4 10l-7 -7c-2,2 -5,3 -8,5 1,2 2,5 3,8 4,-1 8,-3 12,-6zm-10 -11l-8 -9 -5 4c2,3 5,6 6,10l1 0c2,-1 4,-3 6,-5zm-11 -13l-8 -9c-2,2 -4,4 -6,6 3,2 6,5 9,8l5 -5zm-11 -12l-7 -8c-3,3 -5,7 -7,11 3,1 5,2 8,3 1,-2 3,-4 6,-6zm37 -5l-12 11c3,2 6,5 9,7l0 0c1,-2 2,-5 3,-7 2,-4 2,-8 0,-11zm-31 28l-13 10c3,2 7,3 12,2 2,-1 4,-2 7,-3 0,0 0,0 0,0 -2,-3 -4,-6 -6,-9zm-15 7l12 -11c-2,-2 -5,-5 -8,-7 -2,2 -3,5 -4,7 -1,4 -2,8 0,11zm32 -28l12 -10c-3,-2 -7,-2 -12,-1 -2,0 -4,1 -7,2 2,3 4,7 7,9zm-7 40c-1,-2 -2,-4 -2,-6 -3,1 -6,2 -8,3 -2,0 -3,0 -5,0 4,2 7,3 11,3 1,0 2,0 4,0zm-25 -32c-2,-1 -4,-2 -6,-3 0,1 0,2 0,4 -1,3 0,7 1,11 0,-1 1,-3 1,-4 1,-3 2,-6 4,-8zm22 -27c0,2 1,4 2,6 2,-1 5,-2 7,-2 2,-1 4,-1 5,-1 -3,-2 -7,-3 -11,-3 -1,0 -2,0 -3,0zm24 32c2,1 4,2 6,3 0,-1 1,-2 1,-3 0,-4 -1,-8 -2,-12 0,2 -1,3 -1,5 -1,2 -2,5 -4,7z"></path>
 </g>
</svg>