<svg xmlns="http://www.w3.org/2000/svg" xmlns:xlink="http://www.w3.org/1999/xlink" xml:space="preserve" width="173px" height="198px" fill-rule="evenodd" clip-rule="evenodd" viewBox="0 0 173 198">
 <g id="Capa_x0020_1">
  <metadata id="CorelCorpID_0Corel-Layer"></metadata>
  <path fill="#58557E" fill-rule="nonzero" d="M156 154l0 31c0,3 7,2 10,2 2,0 3,0 4,0 2,-1 3,-1 3,-2l0 -31c0,-3 -10,-2 -15,-2 -1,0 -2,1 -2,2zm-72 -103l-1 8c-13,0 -21,19 1,24 0,2 -1,5 -1,6 0,2 1,5 1,7 -6,-1 -6,-6 -7,-8 -4,-5 -13,1 -3,11 2,2 6,4 10,4 -1,3 -1,7 2,7 4,0 3,-3 3,-7 7,0 15,-5 15,-13 0,-5 0,-7 -6,-11 -2,-1 -6,-3 -9,-3l0 -11c6,1 3,8 10,8 2,0 6,-6 -1,-12 -3,-2 -5,-2 -9,-3 0,-4 1,-9 -3,-9 -1,0 -2,1 -2,2zm-6 18c0,-1 1,-2 2,-2 1,-1 2,-2 3,-2 0,2 1,1 1,5 0,2 -1,2 -1,4 -2,0 -5,-2 -5,-5zm11 27l0 -12c2,1 6,3 6,5l0 2c0,3 -4,5 -6,5zm-86 -51c0,3 3,6 6,6 3,0 17,-8 20,-9 2,-1 3,-2 5,-2l34 -17c2,-1 18,-9 19,-9l58 28c3,1 6,3 10,4 2,1 8,5 10,5 3,0 6,-3 6,-7 0,-5 -5,-6 -8,-8l-65 -31c-15,-6 -5,-9 -33,5 -7,3 -14,7 -21,11 -2,1 -4,1 -6,2 -8,4 -25,12 -32,16 -2,1 -3,3 -3,6zm19 17l0 57c0,4 4,7 9,7l112 0c4,0 8,-3 8,-7l0 -57c0,-4 -3,-6 -5,-8 -3,-1 -6,-2 -9,-4l-33 -16c-3,-1 -5,-3 -8,-4 -13,-6 -10,-3 -27,4 -3,1 -6,3 -8,4 -11,5 -24,11 -34,16 -2,2 -5,4 -5,8zm9 0c2,0 4,-2 6,-3 3,-1 5,-2 8,-3 4,-2 9,-5 14,-7 3,-1 27,-13 27,-13l28 13c3,1 5,2 7,3 4,2 20,10 21,10l0 56 -111 0 0 -56zm43 136c9,0 29,-5 39,-6 6,-2 12,-3 19,-4l14 -2c2,0 3,-1 4,-1l0 -26c0,-3 0,-4 -2,-6 -5,-2 -20,-7 -27,-7 -8,0 -9,1 -17,4 -4,1 -7,3 -12,5 -12,4 -43,-6 -43,5 0,2 2,3 4,4 3,1 23,3 29,4 7,1 20,0 20,4 0,2 -4,3 -6,3l-47 -4c-3,0 -8,-4 -11,-6 -3,-3 -5,-5 -9,-9 -4,-4 -8,-9 -13,-12 -2,-1 -3,-2 -5,-4 -11,-6 -14,2 -8,8l27 33c5,6 6,6 17,9l13 4c4,2 9,4 14,4z"></path>
 </g>
</svg>