<svg xmlns="http://www.w3.org/2000/svg" xmlns:xlink="http://www.w3.org/1999/xlink" xml:space="preserve" width="206px" height="166px" fill-rule="evenodd" clip-rule="evenodd" viewBox="0 0 206 166">
 <g id="Capa_x0020_1">
  <metadata id="CorelCorpID_0Corel-Layer"></metadata>
  <path fill="#58557E" d="M52 49c-6,5 -46,36 -49,42 -9,15 7,35 25,26 5,-2 10,-10 15,-15 2,-2 2,-2 3,-4 1,-2 2,-3 4,-4 4,-6 18,-22 21,-26 9,5 21,15 38,-2 7,-7 17,-28 8,-41 -12,12 -18,31 -35,14 -9,-8 -7,-13 -3,-18 5,-5 11,-11 17,-17 -14,-11 -49,1 -51,24 -1,11 4,15 7,21zm131 -3c1,0 -1,0 1,0 0,0 1,0 1,1l3 0c0,0 0,0 0,0 0,0 1,0 1,0 0,0 1,1 1,1 3,0 10,2 15,2 0,-4 2,-8 0,-12 -1,-3 -3,-6 -6,-7 -2,-1 -19,-4 -23,-5 -25,-5 -51,-10 -76,-15 -3,3 -12,12 -16,16 2,0 5,1 7,1l10 2c5,-5 10,-10 17,-15 4,5 9,11 9,20l14 3c11,2 22,4 33,6 2,1 7,2 9,2zm14 44c0,0 0,0 0,-1 0,0 0,-1 0,-1l2 -8c0,0 0,0 0,-1 1,-1 0,0 0,0 0,0 0,-1 0,-1l2 -11c-2,-1 -5,-1 -7,-2l-15 -3c-2,0 -5,-1 -8,-1 1,1 0,0 1,0 1,2 5,5 6,12 1,8 1,48 1,57 5,0 8,-2 10,-5 1,-1 1,-2 2,-5 0,-2 1,-4 1,-6l5 -24zm-53 -34c0,0 0,0 0,0 0,0 0,-1 0,-1 -1,0 -1,0 -2,0l-17 -3c-1,2 -2,4 -3,6l29 0c1,0 2,0 2,-1l-1 0 -8 -1zm-64 93c0,0 -1,0 0,1 0,0 1,0 1,0 1,0 1,0 2,0 3,-1 17,0 23,0 2,-1 3,-1 4,-2 3,-2 3,-9 -3,-10 -4,0 -19,0 -23,0 -4,0 -7,1 -8,4 -1,3 1,7 4,7zm-58 16c1,0 0,0 1,1 0,0 1,0 1,0 1,0 1,0 2,0l32 0c11,0 21,0 32,0 21,0 43,0 64,0 6,0 11,0 14,-3 4,-3 4,-4 4,-11l0 -32c0,-5 1,-44 0,-48 -1,-3 -5,-7 -9,-7 -4,-1 -26,-1 -32,-1 -4,0 -8,0 -12,0 -2,3 -3,5 -5,6 11,0 21,0 32,0 5,0 10,0 15,1 6,0 5,4 5,8 1,10 1,20 1,30 0,10 0,19 0,29 0,2 0,17 -1,19 -2,3 -4,3 -7,3 -10,0 -20,0 -30,0 -34,0 -69,0 -103,0 -2,0 -3,0 -4,-2 -2,-2 -2,-4 -2,-7 0,-8 0,-16 0,-24 -2,0 -4,0 -6,-1 0,5 0,10 1,15 0,3 0,13 0,16 0,2 1,4 3,5 0,1 3,3 4,3zm114 -58c11,1 17,-13 9,-20 -2,-2 -5,-4 -9,-3 0,1 1,1 2,2 2,4 2,5 2,9 0,8 -2,9 -4,12zm-10 31c-8,1 -8,11 1,12 3,0 7,0 11,0 8,0 18,1 17,-7 0,-3 -2,-5 -6,-5 -4,0 -20,0 -23,0zm-94 7c1,4 4,5 7,5 5,0 19,0 24,0 3,-1 6,-3 5,-7 0,-4 -4,-5 -7,-5 -4,0 -20,0 -24,0 -3,0 -5,3 -5,7zm71 -25c-3,0 -6,2 -6,6 1,2 1,3 3,4 2,2 13,1 16,1 3,0 12,1 14,0 4,-1 5,-7 2,-10 -2,-1 -3,-1 -5,-1 -4,0 -21,-1 -24,0zm-45 0c-5,1 -6,8 -2,10 3,2 14,1 17,1 4,0 8,1 12,0 2,0 3,-1 4,-2 1,-2 1,-6 -2,-8 -2,-2 -14,-1 -17,-1 -3,0 -8,-1 -12,0zm62 -36c-12,2 -13,19 -1,23 2,0 2,0 4,0 4,0 8,-3 10,-6 0,-1 0,-1 0,-1 1,-2 1,-5 1,-7 -1,-6 -7,-11 -14,-9z"></path>
 </g>
</svg>