<?xml version="1.0" encoding="UTF-8"?>
<!DOCTYPE svg PUBLIC "-//W3C//DTD SVG 1.0//EN" "http://www.w3.org/TR/2001/REC-SVG-20010904/DTD/svg10.dtd">
<!-- Creator: CorelDRAW X7 -->
<svg xmlns="http://www.w3.org/2000/svg" xml:space="preserve" width="450px" height="94px" version="1.0" shape-rendering="geometricPrecision" text-rendering="geometricPrecision" image-rendering="optimizeQuality" fill-rule="evenodd" clip-rule="evenodd"
viewBox="0 0 450 94"
 xmlns:xlink="http://www.w3.org/1999/xlink">
 <g id="Capa_x0020_1">
  <metadata id="CorelCorpID_0Corel-Layer"/>
  <g id="_1327020132704">
   <path fill="#58557E" d="M19 24c0,1 3,7 3,8l2 3c0,1 0,1 0,2 1,0 1,1 1,2l4 8c1,2 2,5 2,7l2 3c0,0 0,1 0,1 -7,8 -21,8 -29,0 1,0 1,-1 1,-1 1,-3 3,-7 4,-10 1,-3 3,-7 4,-10l6 -13 0 0zm65 0c-4,10 -8,20 -12,30l-2 3c0,0 0,1 0,1 7,8 21,8 29,0 0,0 -1,-1 -1,-1 -4,-11 -9,-22 -14,-33zm-66 -2c-5,12 -12,23 -18,35 0,1 0,1 0,1 0,0 0,1 0,1 5,6 12,10 19,9 8,0 15,-4 19,-10 -3,-4 -15,-28 -18,-35 8,4 16,6 25,7l0 27 -2 0 0 8 -3 0 0 10 -9 0 0 6c9,0 33,0 42,0l0 -6 -10 0 0 -10 -2 0 0 -8 -2 0 0 -27c8,-1 16,-3 24,-7 -3,7 -15,31 -18,35 5,6 11,10 19,10 8,0 14,-3 19,-9 0,0 0,-1 0,-1 0,0 0,0 0,-1 -6,-12 -13,-23 -18,-35 -8,3 -18,4 -28,5l0 -4 -2 0 0 -4 -1 0 0 -3 -1 0 0 -2 0 0 0 -4 -1 -1 0 0 0 -9 0 0 0 9 -1 0 0 1 0 4 0 0 0 2 -2 0 0 3 -1 0 0 4 -2 0 0 4c-10,-1 -20,-2 -28,-5l0 0z"/>
   <g>
    <path fill="#710D11" fill-rule="nonzero" d="M142 65c2,0 4,0 5,-1 1,0 1,0 1,-1 0,0 1,-3 1,-3 0,0 0,0 -1,0 0,0 0,0 0,0 0,0 0,2 -1,2 -1,1 -3,2 -5,2 -5,0 -9,-5 -9,-10 0,-3 0,-6 2,-7 1,-1 3,-2 6,-2 3,0 5,0 6,1 0,1 1,2 1,3 0,0 0,0 0,0 0,0 0,0 0,0 0,0 0,-2 0,-3 1,-1 1,-1 1,-1 0,-1 0,-1 -1,-1 -1,0 -1,0 -3,0 -1,0 -2,0 -3,0 -5,0 -7,1 -9,2 -2,3 -3,6 -3,8 0,2 1,6 3,8 3,2 5,3 9,3zm11 -7c0,2 0,4 -1,5 0,0 0,1 0,1 0,0 -1,0 -1,0 0,0 0,0 0,0 0,0 0,1 0,1 1,0 1,-1 2,-1 0,0 1,0 1,0 0,0 1,0 2,0 1,1 2,1 4,1 1,0 1,0 1,-1 0,-1 1,-2 1,-2 0,0 -1,-1 -1,-1 0,0 0,0 0,1 0,1 0,1 -1,1 -1,1 -2,1 -2,1 -3,0 -3,-1 -3,-2 0,-1 0,-3 0,-4l0 -2c0,0 0,0 0,0 0,0 3,0 4,0 0,0 1,0 1,1 0,0 0,0 0,0 0,0 0,0 0,0 0,0 0,0 0,0 0,0 0,-1 0,-1 0,-1 1,-2 1,-2 0,0 0,0 -1,0 0,0 0,0 0,0 0,1 -1,1 -1,1 -1,0 -4,0 -4,0 0,0 0,0 0,0l0 -7c0,0 0,0 0,0 0,0 3,0 3,0 2,0 2,0 2,1 0,0 0,0 0,1 0,0 0,0 0,0 1,0 1,0 1,0 0,-1 0,-2 0,-2 0,-1 0,-1 0,-1 0,0 0,0 0,0 0,0 0,0 0,0 -1,0 -1,0 -2,0 0,0 -5,0 -5,0 0,0 -2,0 -3,0 0,0 0,0 0,0 0,0 0,0 0,0 0,0 0,0 1,0 0,1 0,1 1,2 0,0 0,1 0,5l0 4zm13 -8c1,1 4,4 7,7 2,3 6,6 6,6 1,1 1,2 2,2 0,0 0,0 0,-2l0 -14c0,-1 0,-1 1,-2 0,0 0,0 0,0 0,0 1,0 1,0 0,0 -1,0 -1,0 -1,0 -2,0 -2,0 0,0 -1,0 -2,0 -1,0 -1,0 -1,0 0,0 0,0 0,0 0,0 1,0 1,1 1,0 1,0 1,2l1 11c-1,-1 -4,-3 -6,-6 -4,-4 -7,-7 -8,-8 0,0 0,0 -1,0 0,0 0,0 0,1l0 13c0,2 0,3 -1,3 0,0 0,0 -1,0 0,0 0,0 0,0 0,0 0,1 1,1 1,0 2,-1 2,-1 0,0 1,1 2,1 1,0 1,-1 1,-1 0,0 0,0 0,0 0,0 -1,0 -1,0 -1,0 -1,-1 -1,-3l-1 -11zm26 -2l3 0c2,0 2,1 2,1l0 1c0,0 0,0 1,0 0,0 0,0 0,0 0,-1 0,-2 0,-3 0,0 0,0 0,0 0,0 -1,0 -1,0 0,0 -1,0 -2,0l-9 0c0,0 -1,0 -2,0 0,0 0,0 -1,0 0,0 0,0 0,0 0,0 0,2 0,3 0,0 0,0 0,0 0,0 0,0 0,0 0,-1 0,-1 0,-1 1,-1 1,-1 3,-1l3 0 0 10c0,2 0,4 0,5 0,0 0,1 0,1 -1,0 -1,0 -1,0 0,0 0,0 0,0 0,0 0,1 0,1 1,0 2,-1 2,-1 1,0 2,1 3,1 1,0 1,-1 1,-1 0,0 0,0 0,0 -1,0 -1,0 -1,0 -1,0 -1,-1 -1,-1 0,-1 0,-3 0,-5l0 -10zm9 10c0,2 0,4 0,5 0,0 0,1 -1,1 0,0 0,0 -1,0 0,0 0,0 0,0 0,0 0,1 1,1 0,0 2,-1 2,-1 0,0 2,1 3,1 0,0 0,-1 0,-1 0,0 0,0 0,0 0,0 -1,0 -1,0 -1,0 -1,-1 -1,-1 0,-1 0,-3 0,-5l0 -1c0,0 0,0 0,0l3 0c0,0 0,0 1,0 0,1 1,2 2,4 1,1 2,3 3,3 1,0 2,1 3,1l1 0c1,0 1,-1 1,-1 0,0 0,0 0,0 0,0 -1,0 -1,0 -1,0 -1,0 -3,-2 -1,-1 -3,-3 -5,-6 2,-1 3,-3 3,-5 0,-1 -1,-3 -1,-3 -2,-1 -3,-1 -5,-1 -1,0 -3,0 -3,0 0,0 -2,0 -3,0 0,0 0,0 0,0 0,0 0,0 0,0 0,0 1,0 1,0 1,1 1,1 1,2 0,0 0,1 0,5l0 4zm2 -10c0,0 0,0 0,0 0,0 1,0 2,0 2,0 4,1 4,4 0,2 -1,3 -1,4 -1,0 -2,0 -2,0 -1,0 -2,0 -3,0 0,0 0,0 0,0l0 -8zm12 8c0,4 3,9 9,9 6,0 10,-4 10,-10 0,-5 -4,-8 -10,-8 -6,0 -9,5 -9,9zm2 -1c0,-5 3,-7 7,-7 4,0 7,2 7,8 0,7 -4,8 -6,8 -4,0 -8,-4 -8,-9zm50 3c0,2 0,4 -1,5 0,0 0,1 0,1 0,0 -1,0 -1,0 0,0 0,0 0,0 0,0 0,1 0,1 1,0 1,-1 2,-1 0,0 1,0 1,0 0,0 1,0 2,0 1,1 2,1 4,1 1,0 1,0 1,-1 0,-1 0,-2 0,-2 0,0 0,-1 0,-1 0,0 0,0 0,1 0,1 0,1 -1,1 -1,1 -2,1 -2,1 -3,0 -3,-1 -3,-2 0,-1 0,-3 0,-4l0 -2c0,0 0,0 0,0 0,0 3,0 3,0 1,0 2,0 2,1 0,0 0,0 0,0 0,0 0,0 0,0 0,0 0,0 0,0 0,0 0,-1 0,-1 0,-1 0,-2 0,-2 0,0 0,0 0,0 0,0 0,0 0,0 0,1 -1,1 -1,1 -1,0 -4,0 -4,0 0,0 0,0 0,0l0 -7c0,0 0,0 0,0 0,0 3,0 3,0 2,0 2,0 2,1 0,0 0,0 0,1 0,0 0,0 0,0 0,0 1,0 1,0 0,-1 0,-2 0,-2 0,-1 0,-1 0,-1 0,0 0,0 0,0 0,0 0,0 -1,0 0,0 0,0 -1,0 0,0 -5,0 -5,0 -1,0 -2,0 -3,0 0,0 -1,0 -1,0 0,0 1,0 1,0 0,0 0,0 0,0 1,1 1,1 1,2 1,0 1,1 1,5l0 4zm20 4c-1,1 -1,2 -3,2 0,0 0,0 0,0 0,0 -1,0 -1,0 0,0 1,1 1,1 1,0 3,-1 3,-1 0,0 1,1 2,1 0,0 1,-1 1,-1 0,0 -1,0 -1,0l0 0c0,0 -1,0 -1,-1 0,0 0,-1 0,-1l2 -5c0,0 0,-1 0,-1l6 0c0,0 0,1 0,1l3 6c0,1 0,1 0,1 0,0 0,0 0,0 0,0 0,0 0,0 2,1 4,1 5,1 0,0 0,-1 0,-1 0,0 0,0 0,0 0,0 -1,0 -1,0 -1,0 -2,-1 -3,-3 -1,-4 -5,-15 -6,-16 0,-1 0,-1 0,-1 -1,0 -1,0 -1,1l-6 17zm4 -6c-1,0 -1,-1 -1,-1l3 -7c0,0 0,0 0,0l3 7c0,0 0,1 0,1l-5 0zm16 4c0,1 0,2 0,3 0,0 0,1 -1,1 0,0 0,0 -1,0 0,0 0,0 0,0 0,0 0,1 1,1 0,0 2,-1 2,-1 0,0 2,1 3,1 0,0 0,-1 0,-1 0,0 0,0 0,0 0,0 -1,0 -1,0 -1,0 -1,-1 -1,-1 0,-1 0,-2 0,-3l0 -2c0,0 0,-1 0,-2 1,-1 4,-6 5,-7 1,-1 1,-1 1,-1 1,-1 1,-1 1,-1 1,0 1,0 1,0 0,0 0,0 -1,0 0,0 -2,0 -2,0 0,0 -1,0 -2,0 0,0 0,0 0,0 0,0 0,0 0,0 1,1 1,1 1,1 0,0 0,1 -1,1 0,1 -3,6 -4,7l-4 -7c0,-1 0,-1 0,-1 0,0 0,0 0,-1 0,0 0,0 0,0 0,0 0,0 0,0 -1,0 -2,0 -2,0 0,0 -2,0 -2,0 -1,0 -1,0 -1,0 0,0 0,0 1,0 0,0 0,1 1,1 0,0 1,1 1,1 1,2 4,7 4,7 1,1 1,1 1,2l0 2zm10 -3c0,3 1,5 2,6 1,2 4,2 5,2 1,0 3,0 5,-2 2,-2 2,-4 2,-7l0 -2c0,-4 0,-5 0,-5 0,-1 0,-1 1,-2 0,0 0,0 0,0 1,0 1,0 1,0 0,0 0,0 -1,0 0,0 -2,0 -2,0 0,0 -1,0 -2,0 -1,0 -1,0 -1,0 0,0 0,0 0,0 1,0 1,0 1,0 1,1 1,1 1,2 0,0 0,1 0,5l0 3c0,2 0,4 -1,5 -1,1 -2,2 -4,2 -1,0 -2,0 -3,-1 -1,-1 -2,-3 -2,-6l0 -3c0,-4 0,-5 0,-5 0,-1 0,-1 1,-2 0,0 0,0 0,0 0,0 1,0 1,0 0,0 -1,0 -1,0 -1,0 -2,0 -2,0 0,0 -2,0 -3,0 0,0 0,0 0,0 0,0 0,0 0,0 0,0 0,0 1,0 0,1 1,1 1,2 0,0 0,1 0,5l0 3zm19 1c0,2 0,4 0,5 0,0 0,1 -1,1 0,0 0,0 -1,0 0,0 0,0 0,0 0,0 0,1 1,1 0,0 0,-1 1,-1 0,0 1,0 1,0 0,0 1,0 2,1 1,0 2,0 3,0 4,0 6,-2 8,-3 1,-1 2,-4 2,-6 0,-3 -1,-5 -2,-6 -3,-3 -7,-3 -10,-3 -1,0 -3,0 -3,0 0,0 -2,0 -3,0 0,0 0,0 0,0 0,0 0,0 0,0 0,0 1,0 1,0 1,1 1,1 1,2 0,0 0,1 0,5l0 4zm2 -10c0,0 0,0 0,0 1,0 1,0 2,0 3,0 5,0 8,2 0,1 2,3 2,6 0,2 -1,5 -2,6 -2,1 -4,2 -6,2 -3,0 -3,-1 -4,-1 0,0 0,-1 0,-2 0,0 0,-2 0,-5l0 -8zm16 14c-1,1 -1,2 -2,2 -1,0 -1,0 -1,0 0,0 0,0 0,0 0,0 0,1 0,1 1,0 2,-1 3,-1 0,0 1,1 2,1 0,0 0,-1 0,-1 0,0 0,0 0,0l0 0c-1,0 -1,0 -1,0 0,-1 0,-1 0,-2l2 -4c0,0 0,0 0,0l5 0c0,0 0,0 1,0l2 6c0,0 0,0 -1,0 0,0 0,0 0,0 0,0 1,0 1,0 2,1 4,1 4,1 0,0 0,-1 0,-1 0,0 0,0 0,0 0,0 0,0 -1,0 0,0 -1,0 -2,-3 -1,-3 -5,-13 -6,-14 0,0 0,0 0,0 0,0 0,0 -1,0l-5 15zm3 -5c0,0 0,0 0,0l2 -6c0,-1 1,-1 1,0l2 6c0,0 0,0 0,0l-5 0zm25 -5c0,-4 0,-5 0,-6 0,-1 1,-1 1,-2 1,0 1,0 1,0 1,0 1,0 1,0 0,0 -1,0 -1,0 -1,0 -3,0 -3,0 0,0 -2,0 -3,0 0,0 0,0 0,0 0,0 0,0 0,0 0,0 1,0 1,0 1,1 1,1 1,2 0,1 0,2 0,6l0 5c0,2 0,4 0,6 0,0 0,1 -1,1 0,0 0,0 -1,0 0,0 0,0 0,0 0,0 0,1 1,1 0,0 1,-1 1,-1 1,0 1,0 1,0 1,0 2,0 3,1 1,0 3,0 5,0 1,0 1,-1 1,-1 0,-1 1,-3 1,-3 0,0 0,0 -1,0 0,0 0,0 0,0 0,1 0,1 0,2 -1,1 -2,1 -4,1 -2,0 -3,-1 -3,-1 -1,-1 -1,-2 -1,-6l0 -5zm12 6c0,2 0,4 -1,5 0,0 0,1 0,1 0,0 -1,0 -1,0 0,0 0,0 0,0 0,0 0,1 0,1 1,0 1,-1 2,-1 0,0 1,0 1,0 0,0 1,0 2,0 1,1 2,1 4,1 1,0 1,0 1,-1 0,-1 1,-2 1,-2 0,0 -1,-1 -1,-1 0,0 0,0 0,1 0,1 0,1 -1,1 -1,1 -2,1 -2,1 -3,0 -3,-1 -3,-2 0,-1 0,-3 0,-4l0 -2c0,0 0,0 0,0 0,0 3,0 4,0 0,0 1,0 1,1 0,0 0,0 0,0 0,0 0,0 0,0 0,0 0,0 0,0 0,0 0,-1 0,-1 0,-1 1,-2 1,-2 0,0 0,0 -1,0 0,0 0,0 0,0 0,1 -1,1 -1,1 -1,0 -4,0 -4,0 0,0 0,0 0,0l0 -7c0,0 0,0 0,0 0,0 3,0 3,0 2,0 2,0 2,1 0,0 0,0 0,1 0,0 0,0 0,0 1,0 1,0 1,0 0,-1 0,-2 0,-2 0,-1 0,-1 0,-1 0,0 0,0 0,0 0,0 0,0 0,0 -1,0 -1,0 -2,0 0,0 -5,0 -5,0 0,0 -2,0 -3,0 0,0 0,0 0,0 0,0 0,0 0,0 0,0 0,0 1,0 0,1 0,1 1,2 0,0 0,1 0,5l0 4zm24 5c0,0 0,0 -1,0 0,1 -1,1 -2,1 -2,0 -4,-1 -6,-3 -1,0 -3,-3 -3,-6 0,-3 1,-5 3,-6 1,-1 3,-1 5,-1 3,0 4,1 5,1 0,1 1,2 1,2 0,0 0,0 0,0 0,0 0,0 0,0 0,-3 0,-3 0,-3 0,-1 0,-1 0,-1 -1,0 -2,0 -2,0 -1,0 -2,0 -4,0 -2,0 -4,0 -6,1 -2,1 -4,4 -4,8 0,3 1,5 3,6 2,3 6,3 8,3 1,0 3,0 5,-1 0,0 0,0 0,-1l0 -3c0,-1 0,-2 0,-2 0,-1 0,-2 1,-2 0,0 0,0 1,0 0,0 0,0 0,0 0,0 0,0 -1,0 0,0 -2,0 -2,0 0,0 -2,0 -3,0 0,0 0,0 0,0 0,0 0,0 0,0 0,0 1,0 1,0 1,0 1,1 1,3l0 4z"/>
    <path fill="#710D11" fill-rule="nonzero" d="M423 62c0,1 -1,2 -2,2 0,0 0,0 0,0 -1,0 -1,0 -1,0 0,0 1,1 1,1 1,0 2,-1 2,-1 1,0 2,1 2,1 1,0 1,-1 1,-1 0,0 0,0 0,0l-1 0c0,0 -1,0 -1,0 0,-1 1,-1 1,-2l1 -4c0,0 0,0 0,0l6 0c0,0 0,0 0,0l2 6c0,0 0,0 0,0 0,0 0,0 0,0 0,0 0,0 1,0 1,1 3,1 4,1 0,0 0,-1 0,-1 0,0 0,0 0,0 0,0 -1,0 -1,0 -1,0 -1,0 -2,-3 -2,-3 -5,-13 -6,-14 0,0 0,0 0,0 -1,0 -1,0 -1,0l-6 15zm4 -5c0,0 0,0 0,0l2 -6c0,-1 0,-1 0,0l3 6c0,0 0,0 0,0l-5 0zm15 -3c0,-4 0,-5 0,-5 1,-1 1,-1 1,-2 1,0 1,0 1,0 0,0 0,0 0,0 0,0 0,0 0,0 -1,0 -3,0 -3,0 0,0 -1,0 -2,0 -1,0 -1,0 -1,0 0,0 0,0 0,0 1,0 1,0 1,0 1,1 1,1 1,2 0,0 0,1 0,5l0 4c0,2 0,4 0,5 0,0 0,1 0,1 -1,0 -1,0 -1,0 0,0 0,0 0,0 0,0 0,1 0,1 0,0 1,-1 1,-1 1,0 1,0 1,0 1,0 2,0 3,0 1,1 2,1 4,1 1,0 1,-1 2,-1 0,-1 0,-2 0,-2 0,-1 0,-1 0,-1 0,0 0,0 0,1 0,0 -1,1 -1,1 -1,1 -2,1 -3,1 -2,0 -3,-1 -3,-1 0,0 -1,-2 -1,-5l0 -4zm-196 4c0,2 0,4 0,5 0,0 0,1 0,1 -1,0 -1,0 -1,0 0,0 0,0 0,0 0,0 0,1 0,1 1,0 1,-1 2,-1 0,0 1,0 1,0 0,0 1,0 2,1 1,0 2,0 3,0 4,0 6,-2 7,-3 1,-1 3,-4 3,-6 0,-3 -1,-5 -3,-6 -2,-3 -7,-3 -9,-3 -2,0 -3,0 -3,0 -1,0 -2,0 -3,0 0,0 -1,0 -1,0 0,0 1,0 1,0 0,0 0,0 0,0 1,1 1,1 1,2 0,0 0,1 0,5l0 4zm3 -10c0,0 0,0 0,0 0,0 1,0 1,0 3,0 6,0 8,2 1,1 2,3 2,6 0,2 0,5 -1,6 -2,1 -4,2 -6,2 -3,0 -4,-1 -4,-1 0,0 0,-1 0,-2 0,0 0,-2 0,-5l0 -8z"/>
   </g>
   <polygon fill="#58557E" points="47,32 49,32 49,24 49,24 49,20 50,20 50,17 53,17 53,20 54,20 54,24 55,24 55,32 56,32 56,59 58,59 58,67 60,67 60,77 70,77 70,79 34,79 34,77 43,77 43,67 45,67 45,59 47,59 47,32 "/>
   <polygon fill="#B1976B" fill-rule="nonzero" points="113,34 113,69 113,69 113,34 "/>
   <polygon fill="#B1976B" fill-rule="nonzero" points="114,34 114,69 114,69 113,69 113,69 112,69 112,69 112,34 112,34 113,34 113,34 114,34 "/>
   <path fill="#B1976B" d="M84 28c-3,8 -7,16 -10,25l-1 2c0,0 -1,1 -1,1 6,7 18,7 24,0 0,0 0,0 0,-1 -4,-9 -8,-18 -12,-27zm0 8c-1,3 -2,5 -3,7 -1,3 -2,6 -4,9l0 0 0 2 0 0c0,0 0,0 0,0 0,0 0,0 0,0 0,1 0,1 0,1 2,2 5,3 7,3 3,0 6,-1 8,-3 0,0 0,0 0,-1 0,0 0,0 0,0 -2,-4 -4,-9 -5,-13 -1,-2 -2,-3 -3,-5l0 0z"/>
   <path fill="#B1976B" d="M19 28c-3,8 -7,16 -10,25l-1 2c-1,0 -1,1 -1,1 6,7 18,7 24,0 0,0 0,0 0,-1 -4,-9 -8,-18 -12,-27zm0 8c-1,3 -2,5 -3,7 -1,3 -3,6 -4,9l0 0 -1 2 0 0c0,0 0,0 0,0 0,0 0,0 0,0 0,1 1,1 1,1 2,2 4,3 7,3 3,0 5,-1 7,-3 1,0 1,0 1,-1 0,0 0,0 0,0 -2,-4 -4,-9 -6,-13 0,-2 -1,-3 -2,-5l0 0z"/>
   <path fill="#666666" fill-rule="nonzero" d="M189 90l-4 -14 2 0 2 9c0,1 0,2 1,3 0,-1 0,-2 0,-3l3 -9 2 0 2 7c1,2 1,3 1,5 0,-1 1,-2 1,-3l2 -9 2 0 -4 14 -2 0 -3 -11c0,-1 0,-1 0,-1 0,0 0,1 0,1l-3 11 -2 0zm15 -12l0 -2 2 0 0 2 -2 0zm0 12l0 -10 2 0 0 10 -2 0zm5 0l0 -14 1 0 0 14 -1 0zm4 0l0 -14 2 0 0 14 -2 0zm4 -12l0 -2 2 0 0 2 -2 0zm0 12l0 -10 2 0 0 10 -2 0zm11 -1c0,0 -1,1 -1,1 -1,0 -2,0 -2,0 -1,0 -2,0 -3,-1 0,0 -1,-1 -1,-2 0,0 0,-1 1,-1 0,0 0,-1 0,-1 1,0 1,0 2,-1 0,0 1,0 1,0 2,0 3,0 3,0 0,-1 0,-1 0,-1 0,-1 0,-1 0,-1 -1,-1 -1,-1 -2,-1 -1,0 -2,0 -2,0 0,1 -1,1 -1,2l-1 0c0,-1 0,-2 0,-2 1,0 1,-1 2,-1 0,0 1,0 2,0 1,0 2,0 2,0 1,0 1,0 1,1 1,0 1,0 1,1 0,0 0,1 0,1l0 3c0,1 0,2 0,3 0,0 0,1 1,1l-2 0c0,0 -1,-1 -1,-1zm0 -4c0,0 -1,0 -3,1 0,0 -1,0 -1,0 0,0 -1,0 -1,0 0,1 0,1 0,1 0,1 0,1 1,1 0,1 0,1 1,1 1,0 1,0 2,-1 0,0 1,0 1,-1 0,0 0,-1 0,-1l0 -1zm5 5l0 -10 1 0 0 1c0,0 1,-1 1,-1 1,0 2,0 2,0 1,0 2,0 2,0 1,0 1,1 1,1 1,-1 2,-1 3,-1 1,0 2,0 3,0 0,1 0,2 0,3l0 7 -1 0 0 -6c0,-1 0,-2 -1,-2 0,0 0,0 0,-1 0,0 -1,0 -1,0 -1,0 -1,0 -2,1 0,0 -1,1 -1,2l0 6 -1 0 0 -7c0,0 0,-1 -1,-1 0,-1 -1,-1 -1,-1 -1,0 -1,0 -1,1 -1,0 -1,0 -1,1 -1,0 -1,1 -1,2l0 5 -1 0zm22 0l0 -14 5 0c1,0 1,0 2,0 1,0 1,0 2,1 0,0 0,1 1,1 0,1 0,1 0,2 0,1 0,2 -1,3 -1,1 -2,1 -4,1l-4 0 0 6 -1 0zm1 -7l4 0c1,0 2,-1 3,-1 0,0 0,-1 0,-2 0,0 0,-1 0,-1 0,-1 -1,-1 -1,-1 -1,0 -1,0 -2,0l-4 0 0 5zm9 7l0 -2 2 0 0 2 -2 0zm11 0l0 -14 5 0c1,0 2,0 3,0 0,1 1,1 1,2 0,0 1,1 1,2 0,0 -1,1 -1,1 0,1 -1,1 -1,2 1,0 1,0 2,1 0,0 0,1 0,2 0,1 0,1 0,2 0,0 -1,1 -1,1 -1,0 -1,1 -2,1 0,0 -1,0 -2,0l-5 0zm2 -8l3 0c0,0 1,0 1,0 1,0 1,-1 1,-1 1,0 1,-1 1,-1 0,-1 0,-1 0,-1 -1,-1 -1,-1 -1,-1 -1,0 -2,0 -3,0l-2 0 0 4zm0 6l3 0c1,0 1,0 1,0 1,0 1,0 1,0 1,0 1,-1 1,-1 0,0 0,-1 0,-1 0,-1 0,-1 0,-1 0,-1 -1,-1 -1,-1 -1,0 -1,0 -2,0l-3 0 0 4zm10 -3c0,-2 1,-3 2,-4 0,-1 2,-1 3,-1 1,0 2,0 3,1 1,1 1,2 1,4 0,1 0,2 0,3 0,1 -1,1 -2,2 -1,0 -1,0 -2,0 -2,0 -3,0 -4,-1 -1,-1 -1,-2 -1,-4zm2 0c0,1 0,2 1,3 0,0 1,1 2,1 1,0 1,-1 2,-1 0,-1 1,-2 1,-3 0,-1 -1,-2 -1,-3 -1,-1 -1,-1 -2,-1 -1,0 -2,0 -2,1 -1,1 -1,2 -1,3zm10 5l0 -10 1 0 0 1c1,-1 2,-1 3,-1 1,0 1,0 2,0 0,0 1,0 1,1 0,0 1,1 1,1 0,0 0,1 0,2l0 6 -2 0 0 -6c0,-1 0,-1 0,-2 0,0 -1,0 -1,-1 0,0 -1,0 -1,0 -1,0 -1,0 -2,1 -1,0 -1,1 -1,2l0 6 -1 0zm10 -5c0,-2 0,-3 1,-4 1,-1 2,-1 3,-1 2,0 3,0 4,1 1,1 1,2 1,4 0,1 0,2 0,3 -1,1 -1,1 -2,2 -1,0 -2,0 -3,0 -1,0 -2,0 -3,-1 -1,-1 -1,-2 -1,-4zm1 0c0,1 1,2 1,3 1,0 2,1 2,1 1,0 2,-1 3,-1 0,-1 0,-2 0,-3 0,-1 0,-2 0,-3 -1,-1 -2,-1 -3,-1 0,0 -1,0 -2,1 0,1 -1,2 -1,3zm10 5l0 -10 2 0 0 1c0,0 0,-1 1,-1 1,0 1,0 2,0 1,0 1,0 2,0 0,0 0,1 1,1 0,-1 2,-1 3,-1 1,0 2,0 2,0 1,1 1,2 1,3l0 7 -2 0 0 -6c0,-1 0,-2 0,-2 0,0 0,0 -1,-1 0,0 0,0 -1,0 0,0 -1,0 -1,1 -1,0 -1,1 -1,2l0 6 -2 0 0 -7c0,0 0,-1 0,-1 0,-1 -1,-1 -2,-1 0,0 -1,0 -1,1 0,0 -1,0 -1,1 0,0 0,1 0,2l0 5 -2 0zm16 -5c0,-2 0,-3 1,-4 1,-1 2,-1 4,-1 1,0 2,0 3,1 1,1 1,2 1,4 0,1 0,2 0,3 -1,1 -1,1 -2,2 -1,0 -2,0 -2,0 -2,0 -3,0 -4,-1 -1,-1 -1,-2 -1,-4zm2 0c0,1 0,2 0,3 1,0 2,1 3,1 0,0 1,-1 2,-1 0,-1 1,-2 1,-3 0,-1 -1,-2 -1,-3 -1,-1 -2,-1 -2,-1 -1,0 -2,0 -3,1 0,1 0,2 0,3zm10 5l0 -2 2 0 0 2c0,1 0,1 -1,2 0,0 0,1 -1,1l0 -1c0,0 0,0 0,-1 1,0 1,0 1,-1l-1 0zm10 0l0 -14 10 0 0 2 -8 0 0 4 8 0 0 2 -8 0 0 4 9 0 0 2 -11 0zm12 -3l2 0c0,0 1,1 1,1 0,1 1,1 2,1 1,0 1,0 2,-1 0,0 0,0 0,-1 0,0 0,-1 0,-1 -1,0 -1,0 -2,0 -1,-1 -2,-1 -3,-1 0,0 -1,-1 -1,-1 0,-1 0,-1 0,-1 0,-1 0,-1 0,-2 0,0 1,0 1,-1 0,0 1,0 1,0 0,0 1,0 1,0 1,0 2,0 3,0 0,0 1,1 1,1 0,0 0,1 0,1l-1 1c0,-1 0,-1 -1,-2 0,0 -1,0 -1,0 -1,0 -2,0 -2,0 0,1 -1,1 -1,1 0,1 0,1 1,1 0,0 0,0 0,0 0,0 1,1 2,1 1,0 2,0 2,1 1,0 1,0 1,1 1,0 1,0 1,1 0,1 0,1 -1,2 0,0 0,1 -1,1 -1,0 -1,0 -2,0 -2,0 -3,0 -3,-1 -1,0 -1,-1 -2,-2zm17 7l0 -5c0,0 0,1 -1,1 0,0 -1,0 -1,0 -2,0 -3,0 -3,-1 -1,-1 -2,-3 -2,-4 0,-1 0,-2 1,-3 0,-1 1,-1 1,-2 1,0 2,0 3,0 1,0 2,0 3,1l0 -1 1 0 0 14 -2 0zm-5 -9c0,1 0,2 1,3 0,0 1,1 2,1 1,0 1,-1 2,-1 0,-1 1,-2 1,-3 0,-1 -1,-2 -1,-3 -1,-1 -2,-1 -2,-1 -1,0 -2,0 -2,1 -1,1 -1,2 -1,3zm10 5l0 -2 2 0 0 2 -2 0z"/>
  </g>
 </g>
</svg>
